<svg width="101" height="100" viewBox="0 0 101 100" fill="none" xmlns="http://www.w3.org/2000/svg">
<path fill-rule="evenodd" clip-rule="evenodd" d="M73.9261 20.3662C76.5534 22.4487 78.3497 25.1874 78.9774 28.0836C79.6786 31.3167 78.9038 34.5979 76.8002 37.3103L40.9217 83.5796C39.1081 85.9202 36.3812 87.2852 33.4335 87.3246L19.5911 87.4996H19.5522C18.0415 87.4996 16.73 86.4496 16.3881 84.9621L13.2543 71.3386C12.5877 68.438 13.2456 65.4324 15.0636 63.0918L19.7729 57.015C20.8767 55.5888 22.9197 55.3351 24.3308 56.4594C25.7418 57.575 25.9886 59.64 24.8805 61.0662L20.1711 67.143C19.5738 67.913 19.3574 68.8974 19.5781 69.8511L22.1189 80.9022L33.3512 80.7622C34.3165 80.749 35.2125 80.3028 35.8098 79.5328L71.6883 33.2635C72.6059 32.0823 72.9219 30.8135 72.6362 29.4836C72.3289 28.0792 71.368 26.6749 69.9223 25.533L63.9057 20.7599C61.577 18.9225 58.2917 17.9775 56.0496 20.8781L51.31 26.9855L58.8328 33.0841C60.2309 34.2129 60.456 36.2822 59.3349 37.6909C58.6943 38.5047 57.7507 38.9247 56.7984 38.9247C56.0886 38.9247 55.37 38.6884 54.7727 38.2028L47.3061 32.1523L35.0307 47.9852C33.9226 49.4114 31.8839 49.6695 30.4685 48.5408C29.0618 47.4252 28.815 45.3602 29.9188 43.934L50.9377 16.8269C55.0151 11.5595 62.157 11.0432 67.9095 15.5975L73.9261 20.3662ZM57.1512 80.9375H84.7537C86.5457 80.9375 88.0001 82.4075 88.0001 84.2187C88.0001 86.0299 86.5457 87.4999 84.7537 87.4999H57.1512C55.3549 87.4999 53.9049 86.0299 53.9049 84.2187C53.9049 82.4075 55.3549 80.9375 57.1512 80.9375Z" fill="white"/>
</svg>
