<svg width="101" height="100" viewBox="0 0 101 100" fill="none" xmlns="http://www.w3.org/2000/svg">
<path fill-rule="evenodd" clip-rule="evenodd" d="M84.4673 31.6305C87.434 34.0165 89.1756 37.6062 89.2137 41.4131L89.1774 74.6377C89.1774 83.6624 81.8615 90.9783 72.8369 90.9783H65.5905C61.2223 90.9784 57.6757 87.4479 57.6557 83.0798V68.0798C57.6557 66.9192 56.7149 65.9783 55.5543 65.9783H44.6847C44.121 65.9782 43.5809 66.2046 43.1858 66.6066C42.7906 67.0085 42.5735 67.5524 42.5832 68.116V73.8406C42.5832 75.6416 41.1233 77.1015 39.3224 77.1015C37.5214 77.1015 36.0615 75.6416 36.0615 73.8406V68.116C36.0615 65.8194 36.9738 63.6168 38.5978 61.9929C40.2217 60.3689 42.4243 59.4566 44.7209 59.4566H55.5905C60.3588 59.4765 64.2137 63.3476 64.2137 68.116V83.0798C64.2137 83.8402 64.8301 84.4566 65.5905 84.4566H73.018C78.4208 84.4566 82.8006 80.0768 82.8006 74.674V41.4856C82.7741 39.647 81.9228 37.9177 80.4818 36.7754L55.4456 16.8116C52.2885 14.2125 47.7331 14.2125 44.576 16.8116L36.5325 22.8261C35.0418 23.8967 32.9654 23.556 31.8948 22.0653C30.8243 20.5745 31.1649 18.4981 32.6557 17.4276L40.5905 11.6667C46.0922 7.24439 53.9294 7.24439 59.4311 11.6667L84.4673 31.6305ZM27.2572 84.4204H43.9239V84.4929C45.7248 84.4929 47.1847 85.9528 47.1847 87.7537C47.1847 89.5547 45.7248 91.0146 43.9239 91.0146H27.2572C18.2408 90.9947 10.9366 83.6904 10.9166 74.674V41.4856C10.9743 37.6505 12.7744 34.0502 15.8079 31.703L18.8152 29.4566C20.2313 28.7891 21.922 29.2221 22.8428 30.4882C23.7637 31.7544 23.6547 33.4963 22.5833 34.6378L19.6485 36.8117C18.2579 37.967 17.449 39.6778 17.4384 41.4856V74.6378C17.478 80.0382 21.8567 84.4007 27.2572 84.4204Z" fill="white"/>
</svg>
