<svg width="1984" height="950" viewBox="0 0 1984 950" fill="none" xmlns="http://www.w3.org/2000/svg">
<rect x="0.5" width="1983" height="950" rx="25" fill="#232730"/>
<path fill-rule="evenodd" clip-rule="evenodd" d="M292.113 570.333H260.892C244.876 570.333 234.834 580.303 234.834 596.387V606.062C234.83 607.82 236.255 609.249 238.013 609.249H238.022H238.059C239.797 609.249 241.209 607.841 241.209 606.099V606.024V596.387C241.209 583.708 248.209 576.708 260.888 576.708H292.113C304.834 576.708 311.792 583.708 311.792 596.387V627.637C311.792 640.316 304.792 647.278 292.113 647.278H260.892C248.176 647.278 241.213 640.278 241.213 627.637C241.213 625.878 239.784 624.449 238.026 624.449C236.263 624.449 234.838 625.878 234.838 627.637C234.834 643.699 244.801 653.666 260.851 653.666H292.113C308.201 653.666 318.167 643.699 318.167 627.649V596.399C318.167 580.303 308.201 570.333 292.113 570.333ZM276.478 630.94C274.753 630.94 273.353 629.54 273.353 627.815V609.399C273.353 607.674 274.753 606.274 276.478 606.274C278.203 606.274 279.603 607.674 279.603 609.399V627.815C279.603 629.54 278.203 630.94 276.478 630.94ZM276.479 599.308H276.521C278.246 599.308 279.646 597.908 279.646 596.183C279.646 594.458 278.246 593.058 276.521 593.058C274.796 593.058 273.375 594.458 273.375 596.183C273.375 597.908 274.754 599.308 276.479 599.308Z" fill="white"/>
<path fill-rule="evenodd" clip-rule="evenodd" d="M835.018 610.241C836.755 610.241 838.168 608.829 838.168 607.091V596.387C838.168 580.3 828.126 570.333 812.138 570.333H780.888C764.801 570.333 754.834 580.3 754.834 596.4V627.65C754.834 643.7 764.801 653.666 780.888 653.666H812.151C828.201 653.666 838.168 643.7 838.155 627.637C838.155 625.879 836.726 624.45 834.968 624.45C833.205 624.45 831.78 625.879 831.78 627.637C831.78 640.279 824.818 647.279 812.138 647.279H780.888C768.209 647.279 761.209 640.279 761.209 627.637V596.387C761.209 583.708 768.209 576.708 780.901 576.708H812.151C824.834 576.708 831.793 583.666 831.793 596.387V606.979V606.987C831.797 608.745 833.222 610.166 834.98 610.166V610.241H835.018ZM787.396 616.772L784.546 619.622C783.275 620.83 783.204 622.835 784.387 624.13L784.479 624.197C785.696 625.414 787.654 625.447 788.908 624.272L791.746 621.435C793.033 620.235 793.104 618.218 791.904 616.926C790.7 615.643 788.683 615.568 787.396 616.772ZM809.595 623.68C808.37 624.901 806.391 624.926 805.137 623.73L804.978 623.576L785.062 603.663C783.845 602.372 783.82 600.363 785.007 599.047C786.224 597.801 788.216 597.776 789.462 598.992C789.474 599.001 789.482 599.009 789.495 599.022L797.266 606.797L804.337 599.722C805.607 598.509 807.612 598.522 808.87 599.751C809.095 599.976 809.287 600.23 809.432 600.513C810.153 601.767 809.945 603.342 808.924 604.367L801.882 611.405L809.541 619.067C810.832 620.288 810.882 622.326 809.657 623.613C809.648 623.627 809.636 623.639 809.623 623.651C809.614 623.66 809.604 623.669 809.595 623.68Z" fill="white"/>
<path fill-rule="evenodd" clip-rule="evenodd" d="M707.123 633.607C707.193 633.728 707.252 633.857 707.306 633.986C707.802 635.207 708.085 636.495 708.156 637.811C708.318 640.957 707.248 643.974 705.135 646.315C703.027 648.657 700.131 650.036 696.985 650.195L652.164 650.199C650.439 650.199 649.039 648.799 649.039 647.074C649.039 645.349 650.439 643.949 652.164 643.949H696.827C698.143 643.874 699.502 643.232 700.498 642.128C701.489 641.028 701.989 639.615 701.914 638.136C701.885 637.578 701.773 637.028 701.577 636.503L671.373 583.645C669.877 580.94 666.498 579.965 663.823 581.445C662.91 581.949 662.164 582.695 661.66 583.607L631.431 636.507C630.943 637.832 630.977 639.27 631.527 640.574C632.102 641.936 633.173 642.995 634.543 643.549C635.123 643.786 635.723 643.92 636.343 643.953C638.064 644.036 639.393 645.507 639.306 647.232C639.223 648.899 637.839 650.199 636.185 650.199C636.131 650.199 636.081 650.199 636.027 650.195C634.702 650.128 633.41 649.84 632.185 649.34C629.277 648.157 626.998 645.907 625.773 643.007C624.543 640.107 624.523 636.899 625.71 633.982C625.76 633.853 625.818 633.728 625.889 633.607L656.21 580.545C657.26 578.645 658.856 577.053 660.793 575.974C666.489 572.824 673.677 574.89 676.823 580.582L707.123 633.607ZM666.506 618.658C668.231 618.658 669.631 617.258 669.631 615.533V603.754C669.631 602.029 668.231 600.629 666.506 600.629C664.781 600.629 663.381 602.029 663.381 603.754V615.533C663.381 617.258 664.781 618.658 666.506 618.658ZM666.506 632.912C668.231 632.912 669.631 631.512 669.631 629.787V629.745C669.631 628.02 668.231 626.641 666.506 626.641C664.781 626.641 663.381 628.062 663.381 629.787C663.381 631.512 664.781 632.912 666.506 632.912Z" fill="white"/>
<path fill-rule="evenodd" clip-rule="evenodd" d="M968.167 607.091C968.167 608.829 966.755 610.241 965.017 610.241H964.98V610.166C963.222 610.166 961.797 608.745 961.792 606.987V606.979V596.387C961.792 583.666 954.834 576.708 942.151 576.708H910.901C898.209 576.708 891.209 583.708 891.209 596.387V627.637C891.209 640.279 898.209 647.279 910.888 647.279H942.138C954.817 647.279 961.78 640.279 961.78 627.637C961.78 625.879 963.205 624.45 964.967 624.45C966.73 624.45 968.155 625.879 968.155 627.637C968.167 643.7 958.201 653.666 942.151 653.666H910.888C894.801 653.666 884.834 643.7 884.834 627.65V596.4C884.834 580.3 894.801 570.333 910.888 570.333H942.138C958.126 570.333 968.167 580.3 968.167 596.387V607.091ZM921.557 617.473L939.124 599.902C940.345 598.681 942.324 598.681 943.545 599.902C944.766 601.123 944.766 603.102 943.545 604.323L923.766 624.102C923.178 624.685 922.382 625.014 921.557 625.014C920.724 625.014 919.932 624.685 919.345 624.102L909.457 614.21C908.237 612.989 908.237 611.01 909.457 609.789C910.678 608.568 912.657 608.568 913.878 609.789L921.557 617.473Z" fill="white"/>
<path fill-rule="evenodd" clip-rule="evenodd" d="M1096.04 459.769C1094.39 457.817 1091.98 456.695 1089.45 456.695H1044.68C1042.96 456.695 1041.56 458.123 1041.56 459.884C1041.56 461.644 1042.96 463.072 1044.68 463.072H1089.45C1090.43 463.072 1091.04 463.617 1091.31 463.94C1091.59 464.267 1092.03 464.96 1091.89 465.947L1087.94 493.835C1087.62 496.021 1085.76 497.67 1083.59 497.67H1038.13C1035.82 497.67 1033.95 495.906 1033.75 493.567L1029.74 444.789C1029.62 443.344 1028.56 442.157 1027.16 441.911L1018.49 440.376C1016.77 440.095 1015.17 441.239 1014.88 442.978C1014.59 444.713 1015.72 446.362 1017.42 446.664L1023.72 447.774L1027.52 494.099C1027.99 499.771 1032.55 504.048 1038.13 504.048H1083.59C1088.84 504.048 1093.37 500.051 1094.12 494.749L1098.08 466.861C1098.44 464.301 1097.69 461.72 1096.04 459.769ZM1031.12 517.229C1031.12 513.679 1033.95 510.788 1037.43 510.788C1040.91 510.788 1043.74 513.679 1043.74 517.229C1043.74 520.78 1040.91 523.667 1037.43 523.667C1033.95 523.667 1031.12 520.78 1031.12 517.229ZM1078 517.229C1078 513.679 1080.83 510.788 1084.31 510.788C1087.79 510.788 1090.62 513.679 1090.62 517.229C1090.62 520.78 1087.79 523.667 1084.31 523.667C1080.83 523.667 1078 520.78 1078 517.229ZM1080.04 475.601C1080.04 477.361 1078.64 478.79 1076.91 478.79H1065.36C1063.63 478.79 1062.23 477.361 1062.23 475.601C1062.23 473.841 1063.63 472.412 1065.36 472.412H1076.91C1078.64 472.412 1080.04 473.841 1080.04 475.601Z" fill="white"/>
<path fill-rule="evenodd" clip-rule="evenodd" d="M1542.94 486.477C1540.48 484.018 1540.48 480.017 1542.94 477.52L1545.94 474.515C1548.32 472.144 1549.61 469.018 1549.61 465.679V461.386C1549.61 457.927 1552.44 455.092 1555.9 455.092H1560.19C1563.53 455.092 1566.65 453.8 1569.03 451.424L1572.03 448.423C1574.44 446.006 1578.4 445.964 1580.9 448.344C1580.94 448.382 1580.94 448.382 1580.98 448.423L1580.98 448.423C1581.53 448.924 1582.28 449.257 1583.11 449.257C1584.82 449.257 1586.23 447.882 1586.23 446.131C1586.23 445.297 1585.9 444.547 1585.36 443.964C1585.19 443.797 1585.03 443.672 1584.86 443.547C1579.94 439.087 1572.32 439.295 1567.61 444.009L1564.61 447.006C1563.44 448.178 1561.86 448.84 1560.19 448.84H1555.9C1548.98 448.84 1543.36 454.467 1543.36 461.386V465.679C1543.36 467.346 1542.69 468.93 1541.53 470.097L1538.48 473.14C1533.61 478.058 1533.61 486.023 1538.53 490.9C1539.15 491.521 1539.94 491.813 1540.73 491.813C1541.53 491.813 1542.36 491.479 1542.94 490.9C1544.15 489.645 1544.15 487.686 1542.94 486.477ZM1611.48 470.11L1614.47 473.102C1616.84 475.457 1618.15 478.604 1618.17 481.959C1618.17 485.315 1616.88 488.47 1614.52 490.846L1611.47 493.888C1610.32 495.055 1609.65 496.668 1609.64 498.323V502.604C1609.64 509.522 1604.02 515.153 1597.1 515.153C1595.37 515.153 1593.97 513.753 1593.97 512.027C1593.97 510.302 1595.37 508.901 1597.1 508.901C1600.57 508.901 1603.39 506.076 1603.39 502.604V498.319C1603.4 494.976 1604.69 491.833 1607.05 489.474L1610.05 486.469C1611.27 485.244 1611.92 483.66 1611.92 481.976C1611.91 480.296 1611.25 478.717 1610.06 477.529L1607.05 474.524C1604.69 472.148 1603.4 469.009 1603.39 465.675V461.386C1603.39 457.91 1600.57 455.088 1597.1 455.088C1595.37 455.088 1593.97 453.688 1593.97 451.962C1593.97 450.236 1595.37 448.836 1597.1 448.836C1604.02 448.836 1609.64 454.463 1609.64 461.386V465.671C1609.65 467.342 1610.3 468.922 1611.48 470.11ZM1576.5 517.423C1578.21 517.49 1579.77 516.769 1580.96 515.564C1582.18 514.347 1584.16 514.335 1585.38 515.552C1586.61 516.773 1586.61 518.753 1585.39 519.978C1582.95 522.437 1579.72 523.667 1576.5 523.667C1573.3 523.667 1570.09 522.454 1567.65 520.024L1564.61 516.981C1563.43 515.81 1561.85 515.156 1560.17 515.151H1555.9C1548.98 515.151 1543.35 509.525 1543.35 502.606C1543.35 500.88 1544.75 499.48 1546.48 499.48C1548.2 499.48 1549.6 500.88 1549.6 502.606C1549.6 506.078 1552.42 508.899 1555.9 508.899H1560.18C1563.52 508.904 1566.66 510.204 1569.02 512.551L1572.03 515.56C1573.24 516.773 1574.82 517.423 1576.5 517.423ZM1563.58 490.495C1562.36 491.716 1562.36 493.696 1563.58 494.917C1564.19 495.526 1564.99 495.83 1565.79 495.83C1566.59 495.83 1567.39 495.526 1568 494.917L1589.41 473.493C1590.64 472.272 1590.64 470.292 1589.41 469.071C1588.19 467.85 1586.22 467.85 1585 469.071L1563.58 490.495ZM1565.75 467.73C1567.75 467.73 1569.37 469.351 1569.37 471.348C1569.37 473.344 1567.75 474.962 1565.75 474.962C1563.76 474.962 1562.14 473.344 1562.14 471.348C1562.14 469.351 1563.76 467.73 1565.75 467.73ZM1587.21 489.099C1589.2 489.099 1590.82 490.721 1590.82 492.717C1590.82 494.714 1589.2 496.335 1587.21 496.335C1585.21 496.335 1583.59 494.714 1583.59 492.717C1583.59 490.721 1585.21 489.099 1587.21 489.099Z" fill="white"/>
<path fill-rule="evenodd" clip-rule="evenodd" d="M1671.08 490.12C1671.08 491.803 1669.68 493.168 1667.96 493.168C1666.23 493.168 1664.83 491.803 1664.83 490.12V459.976C1664.83 450.294 1672.91 442.417 1682.84 442.417H1702.61C1712.56 442.417 1720.66 450.314 1720.66 460.02V463.705C1720.66 465.384 1719.26 466.749 1717.54 466.749C1715.81 466.749 1714.41 465.384 1714.41 463.705V460.02C1714.41 453.671 1709.12 448.513 1702.61 448.513H1682.84C1676.35 448.513 1671.08 453.659 1671.08 459.976V490.12ZM1714.41 500.299C1714.41 498.616 1715.81 497.251 1717.53 497.251C1719.26 497.251 1720.66 498.616 1720.66 500.299V504.024C1720.66 513.706 1712.58 521.583 1702.65 521.583H1682.88C1672.93 521.583 1664.83 513.686 1664.83 503.98C1664.83 502.298 1666.23 500.936 1667.96 500.936C1669.68 500.936 1671.08 502.298 1671.08 503.98C1671.08 510.329 1676.37 515.487 1682.88 515.487H1702.65C1709.14 515.487 1714.41 510.345 1714.41 504.024V500.299ZM1747.93 480.837C1747.45 479.693 1746.31 478.949 1745.04 478.949H1696.29C1694.56 478.949 1693.16 480.318 1693.16 482.001C1693.16 483.683 1694.56 485.049 1696.29 485.049H1737.48L1730.98 491.359C1729.75 492.546 1729.75 494.474 1730.97 495.669C1731.58 496.267 1732.38 496.568 1733.18 496.568C1733.98 496.568 1734.78 496.267 1735.39 495.677L1747.25 484.162C1748.14 483.291 1748.41 481.977 1747.93 480.837ZM1736.17 476.42C1735.38 476.42 1734.58 476.123 1733.97 475.537L1730.98 472.651C1729.76 471.468 1729.75 469.536 1730.96 468.344C1732.18 467.141 1734.15 467.133 1735.38 468.321L1738.37 471.202C1739.6 472.39 1739.61 474.318 1738.39 475.513C1737.78 476.115 1736.98 476.42 1736.17 476.42Z" fill="white"/>
<path fill-rule="evenodd" clip-rule="evenodd" d="M495.31 488.329C494.994 486.254 494.835 484.125 494.835 482C494.835 459.025 513.527 440.333 536.502 440.333C559.477 440.333 578.169 459.025 578.169 482C578.169 504.975 559.477 523.667 536.502 523.667C523.469 523.667 511.431 517.738 503.473 507.408C502.452 506.083 502.702 504.175 504.023 503.158C505.348 502.133 507.248 502.388 508.277 503.708C515.073 512.546 525.365 517.608 536.502 517.608C556.135 517.608 572.11 501.638 572.11 482C572.11 462.367 556.135 446.396 536.502 446.396C516.869 446.396 500.894 462.367 500.894 482C500.894 483.821 501.031 485.642 501.302 487.413C501.552 489.063 500.419 490.608 498.765 490.863C497.102 491.138 495.565 489.983 495.31 488.329ZM548.145 482.003C548.145 482.833 547.815 483.628 547.224 484.216L532.699 498.678C531.474 499.899 529.495 499.895 528.278 498.67C527.061 497.445 527.061 495.47 528.286 494.253L540.59 482.003L528.286 469.753C527.061 468.537 527.061 466.558 528.278 465.333C529.495 464.112 531.474 464.108 532.699 465.324L547.224 479.791C547.815 480.374 548.145 481.17 548.145 482.003Z" fill="white"/>
<path fill-rule="evenodd" clip-rule="evenodd" d="M802.831 523.192C800.756 523.508 798.627 523.667 796.502 523.667C773.527 523.667 754.835 504.975 754.835 482C754.835 459.025 773.527 440.333 796.502 440.333C819.477 440.333 838.169 459.025 838.169 482C838.169 495.033 832.24 507.071 821.91 515.029C820.585 516.05 818.677 515.8 817.66 514.479C816.635 513.154 816.89 511.254 818.21 510.225C827.048 503.429 832.11 493.138 832.11 482C832.11 462.367 816.14 446.392 796.502 446.392C776.869 446.392 760.898 462.367 760.898 482C760.898 501.633 776.869 517.608 796.502 517.608C798.323 517.608 800.144 517.471 801.915 517.2C803.565 516.95 805.11 518.083 805.365 519.738C805.64 521.4 804.485 522.938 802.831 523.192ZM796.505 470.358C797.335 470.358 798.13 470.687 798.718 471.278L813.18 485.803C814.401 487.028 814.397 489.008 813.172 490.224C811.947 491.441 809.972 491.441 808.755 490.216L796.505 477.912L784.255 490.216C783.039 491.441 781.06 491.441 779.835 490.224C778.614 489.008 778.61 487.028 779.826 485.803L794.293 471.278C794.876 470.687 795.672 470.358 796.505 470.358Z" fill="white"/>
<path fill-rule="evenodd" clip-rule="evenodd" d="M967.694 345.671C968.01 347.746 968.169 349.875 968.169 352C968.169 374.975 949.477 393.667 926.502 393.667C903.527 393.667 884.835 374.975 884.835 352C884.835 329.025 903.527 310.333 926.502 310.333C939.535 310.333 951.573 316.262 959.531 326.592C960.552 327.917 960.302 329.825 958.981 330.842C957.656 331.867 955.756 331.612 954.727 330.292C947.931 321.454 937.64 316.392 926.502 316.392C906.869 316.392 890.894 332.362 890.894 352C890.894 371.633 906.869 387.604 926.502 387.604C946.135 387.604 962.11 371.633 962.11 352C962.11 350.179 961.973 348.358 961.702 346.587C961.452 344.937 962.585 343.392 964.24 343.137C965.902 342.862 967.44 344.017 967.694 345.671ZM914.86 351.997C914.86 351.167 915.189 350.372 915.78 349.784L930.305 335.322C931.53 334.101 933.51 334.105 934.726 335.33C935.943 336.555 935.943 338.53 934.718 339.747L922.414 351.997L934.718 364.247C935.943 365.463 935.943 367.442 934.726 368.667C933.51 369.888 931.53 369.892 930.305 368.676L915.78 354.209C915.189 353.626 914.86 352.83 914.86 351.997Z" fill="white"/>
<path fill-rule="evenodd" clip-rule="evenodd" d="M270.173 440.808C272.248 440.492 274.377 440.333 276.502 440.333C299.477 440.333 318.169 459.025 318.169 482C318.169 504.975 299.477 523.667 276.502 523.667C253.527 523.667 234.835 504.975 234.835 482C234.835 468.967 240.765 456.929 251.094 448.971C252.419 447.95 254.327 448.2 255.344 449.521C256.369 450.846 256.115 452.746 254.794 453.775C245.956 460.571 240.894 470.863 240.894 482C240.894 501.633 256.865 517.608 276.502 517.608C296.135 517.608 312.106 501.633 312.106 482C312.106 462.367 296.135 446.392 276.502 446.392C274.681 446.392 272.86 446.529 271.09 446.8C269.44 447.05 267.894 445.917 267.64 444.263C267.365 442.6 268.519 441.063 270.173 440.808ZM276.499 493.643C275.67 493.643 274.874 493.313 274.286 492.722L259.824 478.197C258.603 476.972 258.607 474.993 259.832 473.776C261.057 472.559 263.032 472.559 264.249 473.784L276.499 486.088L288.749 473.784C289.965 472.559 291.945 472.559 293.17 473.776C294.39 474.993 294.395 476.972 293.178 478.197L278.711 492.722C278.128 493.313 277.332 493.643 276.499 493.643Z" fill="white"/>
<path fill-rule="evenodd" clip-rule="evenodd" d="M364.833 351.999C364.833 329.02 383.524 310.333 406.499 310.333C429.474 310.333 448.166 329.02 448.166 351.999C448.166 374.974 429.474 393.666 406.499 393.666C393.47 393.666 381.428 387.737 373.47 377.408C372.449 376.078 372.699 374.174 374.024 373.158C375.349 372.133 377.245 372.387 378.27 373.708C385.074 382.541 395.362 387.608 406.499 387.608C426.133 387.608 442.108 371.637 442.108 351.999C442.108 332.366 426.133 316.391 406.499 316.391C386.866 316.391 370.895 332.366 370.895 351.999C370.895 353.824 371.028 355.637 371.299 357.412C371.549 359.062 370.416 360.608 368.762 360.862C367.099 361.137 365.562 359.983 365.312 358.328C364.995 356.253 364.833 354.124 364.833 351.999ZM402.058 334.655C402.058 332.98 403.417 331.622 405.087 331.622C406.758 331.622 408.116 332.98 408.116 334.655V353.18L422.383 361.688C423.821 362.547 424.291 364.405 423.433 365.842C422.871 366.788 421.862 367.317 420.833 367.317C420.304 367.317 419.766 367.18 419.283 366.892L403.533 357.501C402.621 356.951 402.058 355.963 402.058 354.897V334.655Z" fill="white"/>
<path fill-rule="evenodd" clip-rule="evenodd" d="M423.626 587.425C436.722 587.333 447.589 597.154 448.147 609.983C448.168 610.5 448.172 611.017 448.16 611.529V629.475C448.301 635.712 445.976 641.692 441.618 646.246C437.26 650.804 431.389 653.383 425.089 653.521C424.576 653.533 424.06 653.525 423.539 653.504C417.797 653.608 412.026 653.654 406.281 653.654C400.568 653.654 394.881 653.608 389.293 653.508C376.439 654.146 365.426 643.958 364.856 630.958C364.835 630.442 364.831 629.929 364.839 629.417V611.458C364.556 598.508 374.914 587.692 387.922 587.408C388.431 587.4 388.947 587.408 389.468 587.429L405.964 587.425V586.467C405.931 583.654 403.585 581.346 400.735 581.346H400.693H396.581C394.426 581.254 392.376 580.542 390.818 579.008C389.264 577.487 388.397 575.446 388.372 573.271C388.356 571.667 389.643 570.35 391.247 570.333H391.281C392.868 570.333 394.168 571.617 394.185 573.212C394.189 573.837 394.439 574.425 394.889 574.858C395.331 575.292 395.91 575.529 396.522 575.529H396.547H400.672H400.756C406.751 575.529 411.697 580.4 411.781 586.433V590.329C411.781 591.937 410.476 593.237 408.872 593.237H389.343C389.289 593.236 389.237 593.235 389.185 593.234C388.752 593.223 388.402 593.214 388.06 593.225C378.243 593.433 370.439 601.583 370.651 611.392V629.475C370.643 629.929 370.647 630.321 370.664 630.712C371.093 640.504 379.326 648.125 389.214 647.7C400.539 647.892 412.051 647.892 423.614 647.696C424.172 647.712 424.564 647.721 424.951 647.712C429.71 647.608 434.135 645.662 437.418 642.225C440.701 638.796 442.456 634.292 442.347 629.537V611.458C442.36 611 442.356 610.612 442.335 610.229C441.906 600.408 433.897 593.033 423.701 593.237C422.089 593.287 420.781 591.971 420.76 590.371C420.739 588.762 422.022 587.45 423.626 587.425ZM397.525 627.55C397.505 629.281 396.096 630.68 394.352 630.7H394.315C392.577 630.68 391.178 629.275 391.178 627.55V623.374H386.972C385.763 623.504 384.586 622.937 383.941 621.914C383.296 620.891 383.296 619.592 383.941 618.57C384.586 617.547 385.763 616.98 386.972 617.11H391.178V612.971C391.178 611.231 392.599 609.821 394.352 609.821C396.104 609.821 397.525 611.231 397.525 612.971V617.11H401.731C402.94 616.98 404.117 617.547 404.762 618.57C405.407 619.592 405.407 620.891 404.762 621.914C404.117 622.937 402.94 623.504 401.731 623.374H397.525V627.55ZM416.822 611.322C417.1 611.022 417.44 610.784 417.818 610.626C418.575 610.317 419.424 610.317 420.18 610.626C420.575 610.795 420.937 611.03 421.25 611.322C421.835 611.907 422.166 612.696 422.172 613.52C422.177 613.933 422.102 614.344 421.951 614.729C421.805 615.123 421.565 615.475 421.25 615.755C420.01 616.927 418.062 616.927 416.822 615.755C416.206 615.18 415.856 614.378 415.856 613.538C415.856 612.699 416.206 611.897 416.822 611.322ZM423.87 625.278C422.657 626.498 422.665 628.462 423.889 629.672C425.113 630.881 427.091 630.881 428.315 629.672C429.538 628.462 429.547 626.498 428.334 625.278C428.029 624.993 427.68 624.758 427.301 624.582C426.12 624.11 424.769 624.384 423.87 625.278Z" fill="white"/>
<path fill-rule="evenodd" clip-rule="evenodd" d="M838.167 346.063C838.167 347.824 836.739 349.252 834.978 349.252H834.942C834.093 349.252 833.28 348.91 832.687 348.303C832.094 347.696 831.77 346.875 831.79 346.027V336.389C831.79 323.709 824.791 316.71 812.111 316.71H780.889C768.173 316.71 761.21 323.709 761.21 336.389V367.648C761.21 380.328 768.209 387.29 780.889 387.29H812.111C824.827 387.29 831.79 380.291 831.79 367.648C831.79 365.887 833.218 364.46 834.978 364.46C836.739 364.46 838.167 365.887 838.167 367.648C838.167 383.699 828.199 393.667 812.148 393.667H780.889C764.801 393.667 754.833 383.699 754.833 367.648V336.389C754.833 320.301 764.801 310.333 780.889 310.333H812.111C828.126 310.333 838.167 320.301 838.167 336.389V346.063ZM775.502 371.532V345.11V344.854C775.53 344.011 775.895 343.215 776.515 342.644C777.135 342.072 777.958 341.773 778.8 341.812C779.646 341.841 780.445 342.205 781.023 342.823C781.6 343.442 781.908 344.265 781.878 345.11V371.752C781.817 373.513 780.341 374.891 778.58 374.831C776.819 374.77 775.441 373.293 775.502 371.532ZM793.458 332.504V371.569C793.458 373.33 794.886 374.757 796.646 374.757C798.407 374.757 799.835 373.33 799.835 371.569V332.504C799.835 330.744 798.407 329.316 796.646 329.316C794.886 329.316 793.458 330.744 793.458 332.504ZM811.122 371.533V359.073C811.122 357.312 812.549 355.885 814.31 355.885C816.071 355.885 817.498 357.312 817.498 359.073V371.533C817.498 373.293 816.071 374.721 814.31 374.721C812.549 374.721 811.122 373.293 811.122 371.533Z" fill="white"/>
<path fill-rule="evenodd" clip-rule="evenodd" d="M1173.24 595.72C1173.24 597.321 1171.94 598.62 1170.35 598.62C1168.76 598.62 1167.47 597.321 1167.47 595.72C1167.47 585.165 1176.01 576.583 1186.5 576.583C1197 576.583 1205.53 585.165 1205.53 595.72C1205.53 606.274 1197 614.856 1186.5 614.856C1182.21 614.856 1178.16 613.468 1174.79 610.838C1173.54 609.855 1173.31 608.034 1174.29 606.769C1175.26 605.501 1177.08 605.276 1178.34 606.263C1180.67 608.088 1183.5 609.055 1186.5 609.055C1193.82 609.055 1199.76 603.072 1199.76 595.72C1199.76 588.368 1193.82 582.385 1186.5 582.385C1179.19 582.385 1173.24 588.368 1173.24 595.72ZM1165.75 607.772C1165.75 609.373 1164.46 610.672 1162.87 610.672C1154.56 610.672 1147.81 603.881 1147.81 595.531C1147.81 587.181 1154.56 580.386 1162.87 580.386C1164.46 580.386 1165.75 581.685 1165.75 583.286C1165.75 584.888 1164.46 586.187 1162.87 586.187C1157.74 586.187 1153.58 590.379 1153.58 595.531C1153.58 600.682 1157.74 604.871 1162.87 604.871C1164.46 604.871 1165.75 606.17 1165.75 607.772ZM1157.46 623.967C1155.61 624.091 1153.75 624.365 1151.93 624.775C1149.14 625.328 1147.22 626.272 1146.72 627.316C1146.35 628.109 1146.35 629.026 1146.72 629.818C1146.96 630.317 1147.93 631.559 1151.88 632.375C1153.44 632.696 1154.44 634.227 1154.12 635.798C1153.85 637.171 1152.64 638.114 1151.3 638.114C1151.11 638.114 1150.92 638.095 1150.72 638.056C1145.95 637.074 1142.85 635.14 1141.51 632.309C1140.38 629.931 1140.38 627.204 1141.51 624.826C1142.87 621.967 1145.97 620.038 1150.74 619.094C1152.77 618.638 1154.93 618.324 1157.07 618.181C1158.61 618.061 1160.04 619.28 1160.15 620.877C1160.26 622.478 1159.06 623.863 1157.46 623.967ZM1210.18 604.966C1208.59 604.966 1207.3 606.265 1207.3 607.866C1207.3 609.467 1208.59 610.767 1210.18 610.767C1218.47 610.767 1225.21 603.987 1225.21 595.656C1225.21 587.322 1218.47 580.546 1210.18 580.546C1208.59 580.546 1207.3 581.842 1207.3 583.447C1207.3 585.048 1208.59 586.347 1210.18 586.347C1215.28 586.347 1219.44 590.524 1219.44 595.656C1219.44 600.789 1215.28 604.966 1210.18 604.966ZM1222.35 619.165C1227.04 620.101 1230.14 622.023 1231.49 624.866C1232.62 627.244 1232.62 629.967 1231.49 632.345C1230.15 635.165 1227.06 637.095 1222.3 638.081C1222.11 638.123 1221.91 638.143 1221.71 638.143C1220.38 638.143 1219.18 637.195 1218.89 635.826C1218.58 634.256 1219.58 632.72 1221.14 632.399C1225.08 631.583 1226.05 630.346 1226.28 629.851C1226.65 629.062 1226.65 628.153 1226.28 627.364C1225.79 626.324 1223.88 625.384 1221.16 624.842C1219.27 624.425 1217.41 624.15 1215.57 624.026C1213.98 623.922 1212.78 622.533 1212.89 620.936C1212.99 619.339 1214.38 618.155 1215.96 618.24C1218.09 618.384 1220.24 618.697 1222.35 619.165ZM1186.5 620.859C1179.55 620.859 1158.42 620.859 1158.42 634.174C1158.42 637.179 1159.6 641.341 1165.2 644.106C1166.93 644.949 1169.01 645.638 1171.4 646.152C1172.95 646.5 1174.49 645.487 1174.82 643.921C1175.16 642.354 1174.16 640.811 1172.6 640.478C1170.67 640.065 1169.03 639.531 1167.74 638.893C1164.59 637.342 1164.19 635.559 1164.19 634.174C1164.19 627.963 1176.32 626.66 1186.5 626.66C1201.31 626.66 1208.81 629.162 1208.81 634.105C1208.81 640.312 1196.68 641.615 1186.5 641.615C1184.91 641.615 1183.62 642.915 1183.62 644.516C1183.62 646.117 1184.91 647.417 1186.5 647.417C1193.45 647.417 1214.58 647.417 1214.58 634.105C1214.58 620.859 1194.18 620.859 1186.5 620.859Z" fill="white"/>
<path fill-rule="evenodd" clip-rule="evenodd" d="M1056.54 576.583H1056.47C1047.62 576.583 1040.4 583.642 1040.36 592.35V597.946H1072.64V592.421C1072.64 583.687 1065.41 576.583 1056.54 576.583ZM1078.99 592.421V599.075C1086.49 601.662 1091.92 608.617 1091.92 616.871V634.742C1091.92 645.179 1083.29 653.667 1072.68 653.667H1072.55H1058.34C1056.59 653.667 1055.17 652.267 1055.17 650.542C1055.17 648.817 1056.59 647.417 1058.34 647.417H1072.55C1079.66 647.417 1085.44 641.733 1085.44 634.742C1085.44 634.589 1085.48 634.451 1085.52 634.313C1085.53 634.255 1085.55 634.197 1085.56 634.137V616.871C1085.56 609.879 1079.78 604.196 1072.68 604.196H1040.32C1033.22 604.196 1027.44 609.879 1027.44 616.871V634.137C1027.45 634.201 1027.47 634.264 1027.48 634.327C1027.52 634.46 1027.56 634.594 1027.56 634.742C1027.56 641.733 1033.34 647.417 1040.45 647.417C1042.2 647.417 1043.62 648.817 1043.62 650.542C1043.62 652.267 1042.2 653.667 1040.45 653.667C1040.43 653.667 1040.42 653.665 1040.4 653.662C1040.39 653.66 1040.38 653.658 1040.36 653.658C1040.35 653.658 1040.35 653.66 1040.34 653.662C1040.34 653.665 1040.33 653.667 1040.32 653.667C1029.71 653.667 1021.08 645.179 1021.08 634.742V616.871C1021.08 608.617 1026.51 601.662 1034.01 599.075V592.421C1034.06 580.179 1044.13 570.333 1056.46 570.333H1056.56C1068.92 570.333 1078.99 580.242 1078.99 592.421ZM1059.68 621.178V630.433C1059.68 632.158 1058.25 633.558 1056.5 633.558C1054.75 633.558 1053.32 632.158 1053.32 630.433V621.178C1053.32 619.453 1054.75 618.053 1056.5 618.053C1058.25 618.053 1059.68 619.453 1059.68 621.178Z" fill="white"/>
<path fill-rule="evenodd" clip-rule="evenodd" d="M1300.36 597.946H1332.68C1343.29 597.946 1351.92 606.433 1351.92 616.871V634.742C1351.92 645.179 1343.29 653.667 1332.68 653.667H1332.56H1318.34C1316.59 653.667 1315.17 652.267 1315.17 650.542C1315.17 648.817 1316.59 647.417 1318.34 647.417H1332.56C1339.66 647.417 1345.44 641.733 1345.44 634.742C1345.44 634.593 1345.48 634.458 1345.52 634.324C1345.53 634.264 1345.55 634.203 1345.56 634.142V616.871C1345.56 609.879 1339.79 604.196 1332.68 604.196H1300.32C1293.22 604.196 1287.44 609.879 1287.44 616.871V634.142C1287.45 634.203 1287.47 634.264 1287.48 634.324C1287.52 634.458 1287.56 634.593 1287.56 634.742C1287.56 641.733 1293.34 647.417 1300.45 647.417C1302.2 647.417 1303.62 648.817 1303.62 650.542C1303.62 652.267 1302.2 653.667 1300.45 653.667C1300.43 653.667 1300.42 653.664 1300.4 653.662C1300.39 653.66 1300.37 653.658 1300.36 653.658C1300.36 653.658 1300.35 653.66 1300.34 653.662C1300.34 653.664 1300.33 653.667 1300.32 653.667C1289.71 653.667 1281.08 645.179 1281.08 634.742V616.871C1281.08 608.621 1286.51 601.662 1294.01 599.075V592.421C1294.06 580.179 1304.13 570.333 1316.46 570.333H1316.56C1326.11 570.333 1334.63 576.308 1337.76 585.196C1338.33 586.829 1337.46 588.608 1335.8 589.175C1334.15 589.742 1332.33 588.875 1331.76 587.242C1329.52 580.867 1323.4 576.583 1316.54 576.583H1316.47C1307.62 576.583 1300.4 583.642 1300.36 592.35V597.946ZM1319.68 621.179V630.433C1319.68 632.158 1318.25 633.558 1316.5 633.558C1314.75 633.558 1313.32 632.158 1313.32 630.433V621.179C1313.32 619.454 1314.75 618.054 1316.5 618.054C1318.25 618.054 1319.68 619.454 1319.68 621.179Z" fill="white"/>
<path fill-rule="evenodd" clip-rule="evenodd" d="M1472.26 581.087H1464.08C1463.31 575.029 1458.12 570.333 1451.86 570.333H1441.1C1434.84 570.333 1429.65 575.025 1428.87 581.083L1420.74 581.087C1411.97 581.087 1404.83 588.204 1404.83 596.95V611.396C1404.83 612.446 1405.36 613.425 1406.24 614.004C1414.82 619.667 1424.97 623.437 1435.6 624.917C1437.18 625.15 1438.63 624.162 1439.05 622.646C1439.97 619.267 1442.95 616.996 1446.46 616.996C1449.92 616.996 1452.93 619.317 1453.77 622.629C1454.13 624.029 1455.39 624.987 1456.8 624.987C1456.95 624.987 1457.09 624.979 1457.23 624.958C1467.93 623.479 1478.13 619.687 1486.72 614.004C1487.6 613.421 1488.12 612.446 1488.12 611.396V596.95C1488.12 588.204 1481.01 581.087 1472.26 581.087ZM1481.87 609.687C1475.03 613.942 1467.14 616.921 1458.83 618.383C1456.55 613.771 1451.8 610.746 1446.46 610.746C1441.16 610.746 1436.39 613.762 1434.05 618.346C1425.79 616.892 1417.92 613.929 1411.08 609.687V596.95C1411.08 591.65 1415.41 587.337 1420.74 587.337L1431.9 587.329C1432.73 587.329 1433.52 587 1434.11 586.412C1434.7 585.821 1435.02 585.029 1435.02 584.2L1435.02 582.658C1435.02 579.308 1437.75 576.583 1441.1 576.583H1451.86C1454.66 576.583 1457.03 578.496 1457.73 581.087H1446.48C1444.75 581.087 1443.35 582.487 1443.35 584.212C1443.35 585.937 1444.75 587.337 1446.48 587.337H1472.26C1477.56 587.337 1481.87 591.65 1481.87 596.95V609.687ZM1449.6 626.097V631.489C1449.6 633.214 1448.2 634.614 1446.48 634.614C1444.75 634.614 1443.35 633.214 1443.35 631.489V626.097C1443.35 624.372 1444.75 622.972 1446.48 622.972C1448.2 622.972 1449.6 624.372 1449.6 626.097ZM1484.9 623.355C1483.26 623.355 1481.95 624.63 1481.83 626.23C1481.83 626.23 1481.19 633.518 1481.05 635.818C1480.9 638.364 1479.87 641.135 1478.42 642.872C1476.38 645.33 1474.12 646.293 1470.37 646.301C1467.9 646.305 1454.6 646.31 1444.55 646.31C1442.82 646.31 1441.42 647.71 1441.42 649.435C1441.42 651.16 1442.82 652.56 1444.54 652.56C1454.24 652.56 1468.05 652.555 1470.38 652.551C1475.94 652.539 1480.02 650.73 1483.23 646.864C1485.54 644.089 1487.05 640.101 1487.29 636.193C1487.39 634.585 1487.71 630.415 1487.89 628.093C1487.96 627.14 1488.01 626.499 1488.01 626.472C1488.01 624.751 1486.62 623.355 1484.9 623.355ZM1422.59 646.3C1423.41 646.305 1425.1 646.305 1427.32 646.305C1429.05 646.305 1430.46 647.705 1430.46 649.43C1430.46 651.155 1429.04 652.555 1427.31 652.555C1425.06 652.555 1423.42 652.555 1422.58 652.55C1417.02 652.538 1412.93 650.73 1409.73 646.859C1407.43 644.088 1405.9 640.1 1405.67 636.192C1405.58 634.608 1405.26 630.535 1405.08 628.194C1405 627.186 1404.95 626.499 1404.95 626.471C1404.95 624.75 1406.34 623.355 1408.06 623.355C1409.7 623.355 1411 624.63 1411.13 626.234C1411.13 626.234 1411.77 633.521 1411.91 635.817C1412.06 638.363 1413.09 641.134 1414.54 642.867C1416.58 645.334 1418.84 646.292 1422.59 646.3Z" fill="white"/>
<path fill-rule="evenodd" clip-rule="evenodd" d="M390.077 462.641C390.077 453.641 397.444 446.321 406.5 446.321C415.557 446.321 422.924 453.641 422.924 462.641C422.924 471.637 415.557 478.957 406.5 478.957C397.444 478.957 390.077 471.637 390.077 462.641ZM384.051 462.641C384.051 474.937 394.123 484.945 406.5 484.945C418.877 484.945 428.944 474.937 428.944 462.641C428.944 450.341 418.877 440.333 406.5 440.333C394.123 440.333 384.051 450.341 384.051 462.641ZM402.24 523.604C403.636 523.646 405.058 523.667 406.5 523.667C420.81 523.667 439.833 522.079 439.833 508.375C439.833 492.997 414.743 492.997 406.5 492.997C392.19 492.997 373.167 494.584 373.167 508.292C373.167 512.396 375.087 517.933 384.236 521.013C385.817 521.554 387.519 520.7 388.056 519.138C388.588 517.575 387.745 515.879 386.169 515.35C379.909 513.242 379.188 510.313 379.188 508.292C379.188 502.113 388.378 498.98 406.5 498.98C424.622 498.98 433.812 502.142 433.812 508.375C433.812 514.55 424.622 517.679 406.5 517.679C405.116 517.679 403.754 517.663 402.412 517.625C400.802 517.638 399.368 518.879 399.322 520.529C399.272 522.183 400.58 523.562 402.24 523.604Z" fill="white"/>
<path fill-rule="evenodd" clip-rule="evenodd" d="M1709.06 310.752L1736.74 320.198C1739.84 321.256 1741.92 324.106 1741.92 327.298V354.968C1741.92 363.355 1738.8 371.476 1733.14 377.813C1730.55 380.717 1727.23 383.213 1722.99 385.446L1708.03 393.3C1707.56 393.542 1707.04 393.667 1706.53 393.667C1706.01 393.667 1705.5 393.542 1705.03 393.3L1690.04 385.442C1685.79 383.204 1682.46 380.709 1679.87 377.817C1674.21 371.471 1671.08 363.347 1671.08 354.951C1671.08 353.259 1672.5 351.884 1674.24 351.884C1675.98 351.884 1677.39 353.259 1677.39 354.951C1677.39 361.876 1679.97 368.567 1684.64 373.801C1686.72 376.13 1689.46 378.171 1693.04 380.046L1706.53 387.117L1719.98 380.05C1723.55 378.18 1726.29 376.138 1728.38 373.801C1733.04 368.572 1735.61 361.888 1735.61 354.968V327.298C1735.61 326.706 1735.22 326.181 1734.65 325.985L1706.98 316.539C1706.67 316.435 1706.33 316.435 1706.02 316.539L1678.35 325.985C1677.78 326.181 1677.39 326.706 1677.39 327.298V335.214C1677.39 336.91 1675.98 338.285 1674.24 338.285C1672.5 338.285 1671.08 336.91 1671.08 335.214V327.298C1671.08 324.106 1673.17 321.256 1676.26 320.198L1703.94 310.752C1705.59 310.194 1707.41 310.194 1709.06 310.752ZM1698.54 361.913C1697.74 361.913 1696.93 361.613 1696.31 361.013C1695.08 359.817 1695.08 357.876 1696.31 356.68L1701.98 351.172L1696.31 345.655C1695.08 344.459 1695.08 342.526 1696.31 341.322C1697.55 340.126 1699.54 340.126 1700.77 341.322L1706.44 346.838L1712.12 341.322C1713.35 340.126 1715.34 340.126 1716.58 341.322C1717.81 342.526 1717.81 344.459 1716.58 345.655L1710.9 351.172L1716.58 356.68C1717.81 357.876 1717.81 359.817 1716.58 361.013C1715.96 361.613 1715.15 361.913 1714.35 361.913C1713.54 361.913 1712.73 361.613 1712.12 361.013L1706.44 355.505L1700.77 361.013C1700.15 361.613 1699.35 361.913 1698.54 361.913Z" fill="white"/>
<path fill-rule="evenodd" clip-rule="evenodd" d="M1579.06 310.752L1606.74 320.198C1609.84 321.256 1611.92 324.106 1611.92 327.298V354.968C1611.92 363.355 1608.8 371.476 1603.14 377.813C1600.55 380.717 1597.23 383.213 1592.99 385.446L1578.03 393.3C1577.56 393.542 1577.04 393.667 1576.53 393.667C1576.01 393.667 1575.5 393.542 1575.03 393.3L1560.04 385.442C1555.79 383.204 1552.46 380.709 1549.87 377.817C1544.21 371.471 1541.08 363.347 1541.08 354.951C1541.08 353.259 1542.5 351.884 1544.24 351.884C1545.98 351.884 1547.39 353.259 1547.39 354.951C1547.39 361.876 1549.97 368.567 1554.64 373.801C1556.72 376.13 1559.46 378.171 1563.04 380.046L1576.53 387.117L1589.98 380.05C1593.55 378.18 1596.3 376.138 1598.38 373.801C1603.04 368.572 1605.61 361.888 1605.61 354.968V327.298C1605.61 326.706 1605.22 326.181 1604.65 325.985L1576.98 316.539C1576.67 316.435 1576.33 316.435 1576.02 316.539L1548.35 325.985C1547.78 326.181 1547.39 326.706 1547.39 327.298V335.214C1547.39 336.91 1545.98 338.285 1544.24 338.285C1542.5 338.285 1541.08 336.91 1541.08 335.214V327.298C1541.08 324.106 1543.17 321.256 1546.26 320.198L1573.94 310.752C1575.59 310.194 1577.41 310.194 1579.06 310.752ZM1573.53 361.656C1572.69 361.656 1571.89 361.331 1571.3 360.756L1563.34 353.023C1562.11 351.823 1562.11 349.89 1563.34 348.69C1564.57 347.49 1566.57 347.49 1567.8 348.69L1573.53 354.252L1587.68 340.499C1588.91 339.303 1590.91 339.303 1592.14 340.499C1593.37 341.694 1593.37 343.636 1592.14 344.832L1575.76 360.756C1575.16 361.331 1574.36 361.656 1573.53 361.656Z" fill="white"/>
<path fill-rule="evenodd" clip-rule="evenodd" d="M1174.19 324.904H1221.03C1222.67 324.904 1224 326.266 1224 327.95C1224 329.637 1222.67 331 1221.03 331H1151.97C1150.33 331 1149 329.637 1149 327.95C1149 326.266 1150.33 324.904 1151.97 324.904H1165.28C1167.05 324.904 1168.59 323.608 1168.94 321.833L1169.93 316.75C1170.93 312.892 1174.18 310.333 1177.88 310.333H1195.12C1198.82 310.333 1202.07 312.892 1203.03 316.558C1203.45 318.187 1202.51 319.858 1200.92 320.296C1199.34 320.733 1197.71 319.767 1197.28 318.137C1197.02 317.133 1196.13 316.433 1195.12 316.433H1177.88C1176.87 316.433 1175.98 317.133 1175.72 318.137L1174.77 323.025C1174.64 323.683 1174.44 324.3 1174.19 324.904ZM1170.48 387.403C1166.66 387.32 1164.5 385.195 1164.05 381.082C1162.78 369.32 1160.59 341.466 1160.57 341.187C1160.44 339.508 1159.01 338.312 1157.37 338.387C1155.73 338.525 1154.51 339.996 1154.64 341.67C1154.67 341.954 1156.86 369.903 1158.14 381.762C1158.91 388.857 1163.59 393.353 1170.36 393.499H1170.42C1172.03 393.499 1173.36 392.178 1173.39 390.516C1173.42 388.832 1172.12 387.436 1170.48 387.403ZM1215.63 338.388C1214.01 338.301 1212.56 339.505 1212.43 341.184C1212.41 341.463 1210.21 369.392 1208.94 381.063C1208.49 385.263 1206.3 387.342 1202.24 387.421L1200.63 387.45C1195.47 387.543 1193.07 387.586 1187.31 387.567H1187.31C1185.66 387.567 1184.34 388.921 1184.33 390.6C1184.32 392.288 1185.65 393.654 1187.29 393.663C1188.31 393.667 1189.32 393.667 1190.34 393.667C1194.58 393.667 1196.28 393.633 1199.47 393.569H1199.47L1199.47 393.569C1200.3 393.552 1201.24 393.533 1202.35 393.513C1209.4 393.383 1214.08 388.979 1214.86 381.729C1216.13 369.975 1218.33 341.955 1218.35 341.676C1218.49 339.997 1217.27 338.526 1215.63 338.388Z" fill="white"/>
<path fill-rule="evenodd" clip-rule="evenodd" d="M1469.93 322.366C1472.55 324.449 1474.35 327.187 1474.98 330.084C1475.68 333.317 1474.9 336.598 1472.8 339.31L1436.92 385.58C1435.11 387.92 1432.38 389.285 1429.43 389.325L1415.59 389.5H1415.55C1414.04 389.5 1412.73 388.45 1412.39 386.962L1409.25 373.339C1408.59 370.438 1409.25 367.432 1411.06 365.092L1415.77 359.015C1416.88 357.589 1418.92 357.335 1420.33 358.459C1421.74 359.575 1421.99 361.64 1420.88 363.066L1416.17 369.143C1415.57 369.913 1415.36 370.897 1415.58 371.851L1418.12 382.902L1429.35 382.762C1430.32 382.749 1431.21 382.303 1431.81 381.533L1467.69 335.264C1468.61 334.082 1468.92 332.814 1468.64 331.484C1468.33 330.079 1467.37 328.675 1465.92 327.533L1459.91 322.76C1457.58 320.922 1454.29 319.977 1452.05 322.878L1447.31 328.985L1454.83 335.084C1456.23 336.213 1456.46 338.282 1455.33 339.691C1454.69 340.505 1453.75 340.925 1452.8 340.925C1452.09 340.925 1451.37 340.688 1450.77 340.203L1443.31 334.152L1431.03 349.985C1429.92 351.411 1427.88 351.67 1426.47 350.541C1425.06 349.425 1424.82 347.36 1425.92 345.934L1446.94 318.827C1451.02 313.559 1458.16 313.043 1463.91 317.598L1469.93 322.366ZM1453.15 382.938H1480.75C1482.55 382.938 1484 384.408 1484 386.219C1484 388.03 1482.55 389.5 1480.75 389.5H1453.15C1451.35 389.5 1449.9 388.03 1449.9 386.219C1449.9 384.408 1451.35 382.938 1453.15 382.938Z" fill="white"/>
<path fill-rule="evenodd" clip-rule="evenodd" d="M523.758 330.644C520.327 332.545 516.12 332.518 512.716 330.572L512.566 330.426C511.034 329.496 510.564 327.53 511.516 326.034C512.469 324.538 514.482 324.079 516.014 325.009C516.698 325.399 517.471 325.613 518.262 325.631C519.475 325.681 520.659 325.257 521.552 324.454C522.444 323.651 522.973 322.534 523.022 321.349C522.999 315.398 527.836 310.512 533.928 310.333H539.063C545.272 310.333 550.306 315.249 550.306 321.313C550.296 322.085 550.503 322.844 550.906 323.509C551.503 324.537 552.496 325.29 553.664 325.599C554.833 325.909 556.08 325.749 557.127 325.156C562.403 322.351 569.005 324.091 572.118 329.108C572.978 330.639 572.449 332.56 570.919 333.463C569.363 334.33 567.383 333.827 566.459 332.329C565.189 330.216 562.413 329.498 560.238 330.718C556.796 332.559 552.621 332.514 549.222 330.6C545.822 328.686 543.691 325.18 543.597 321.349C543.638 320.15 543.178 318.985 542.323 318.123C541.469 317.261 540.292 316.774 539.063 316.775H533.928C532.696 316.774 531.515 317.26 530.655 318.121C529.794 318.982 529.326 320.146 529.356 321.349C529.321 325.201 527.188 328.742 523.758 330.644ZM529.356 382.797C529.376 385.249 531.417 387.226 533.928 387.225L533.891 387.299C535.056 387.299 536.132 387.905 536.714 388.891C537.297 389.876 537.297 391.09 536.714 392.075C536.132 393.06 535.056 393.667 533.891 393.667C527.681 393.667 522.647 388.751 522.647 382.687C522.657 381.915 522.45 381.156 522.048 380.491C520.79 378.366 518.011 377.63 515.826 378.845C510.55 381.649 503.949 379.909 500.835 374.892L498.287 370.537C495.415 365.385 497.197 358.938 502.334 355.898C503.015 355.506 503.583 354.952 503.983 354.287C504.735 353.264 505.005 351.977 504.726 350.748C504.447 349.519 503.646 348.463 502.522 347.846C497.384 344.806 495.602 338.359 498.474 333.207C498.955 332.501 499.703 332.012 500.555 331.847C501.406 331.682 502.289 331.856 503.009 332.329C504.431 333.273 504.844 335.141 503.946 336.574C502.705 338.696 503.46 341.399 505.632 342.613C507.264 343.589 508.608 344.964 509.53 346.602C512.402 351.754 510.62 358.201 505.482 361.241C503.31 362.455 502.556 365.157 503.796 367.28L506.382 371.635C506.97 372.673 507.967 373.431 509.141 373.735C510.315 374.039 511.566 373.862 512.603 373.245C514.276 372.297 516.179 371.805 518.112 371.818C524.322 371.818 529.356 376.733 529.356 382.797ZM570.619 355.861C569.572 355.272 568.809 354.299 568.499 353.159C568.19 352.018 568.359 350.804 568.97 349.786C569.37 349.121 569.938 348.567 570.619 348.176C572.157 347.273 572.659 345.327 571.743 343.821C570.833 342.333 568.889 341.803 567.321 342.613C562.183 345.653 560.401 352.1 563.273 357.252C564.185 359.052 565.602 360.562 567.358 361.607C568.403 362.189 569.165 363.155 569.475 364.29C569.785 365.425 569.616 366.633 569.007 367.646L566.459 372.001C565.845 373.02 564.851 373.768 563.685 374.087C562.517 374.391 561.273 374.22 560.237 373.611C556.79 371.768 552.607 371.817 549.206 373.739C545.804 375.662 543.678 379.18 543.597 383.017C543.777 384.654 545.191 385.895 546.877 385.895C548.562 385.895 549.976 384.654 550.156 383.017C550.125 381.418 550.986 379.929 552.405 379.13C553.824 378.331 555.575 378.348 556.977 379.174C562.253 381.979 568.855 380.238 571.968 375.222L574.516 370.866C577.663 365.669 575.922 358.966 570.619 355.861ZM536.477 338.257C530.774 338.257 525.633 341.614 523.454 346.761C521.275 351.907 522.488 357.829 526.526 361.762C530.564 365.694 536.631 366.862 541.895 364.721C547.16 362.58 550.583 357.551 550.568 351.982C550.568 348.335 549.082 344.839 546.439 342.264C543.795 339.689 540.211 338.248 536.477 338.257ZM536.477 359.338C532.337 359.338 528.981 356.061 528.981 352.018C528.981 347.976 532.337 344.699 536.477 344.699C540.616 344.699 543.972 347.976 543.972 352.018C543.972 356.061 540.616 359.338 536.477 359.338Z" fill="white"/>
<path fill-rule="evenodd" clip-rule="evenodd" d="M1404.83 481.999C1404.83 459.02 1423.52 440.333 1446.5 440.333C1469.47 440.333 1488.17 459.02 1488.17 481.999C1488.17 504.974 1469.47 523.666 1446.5 523.666C1433.47 523.666 1421.43 517.737 1413.47 507.408C1412.45 506.078 1412.7 504.174 1414.02 503.158C1415.35 502.133 1417.25 502.387 1418.27 503.708C1425.07 512.541 1435.36 517.608 1446.5 517.608C1466.13 517.608 1482.11 501.637 1482.11 481.999C1482.11 462.366 1466.13 446.391 1446.5 446.391C1426.87 446.391 1410.89 462.366 1410.89 481.999C1410.89 483.824 1411.03 485.637 1411.3 487.412C1411.55 489.062 1410.42 490.608 1408.76 490.862C1407.1 491.137 1405.56 489.983 1405.31 488.328C1405 486.253 1404.83 484.124 1404.83 481.999ZM1446.5 463.058C1444.77 463.058 1443.37 464.458 1443.37 466.183V484.6C1443.37 486.325 1444.77 487.725 1446.5 487.725C1448.22 487.725 1449.62 486.325 1449.62 484.6V466.183C1449.62 464.458 1448.22 463.058 1446.5 463.058ZM1446.54 494.69H1446.5C1444.78 494.69 1443.4 496.09 1443.4 497.815C1443.4 499.54 1444.82 500.94 1446.54 500.94C1448.27 500.94 1449.67 499.54 1449.67 497.815C1449.67 496.09 1448.27 494.69 1446.54 494.69Z" fill="white"/>
<path d="M1335.75 458.975H1334.89C1334.78 448.679 1326.6 440.333 1316.55 440.333C1311.49 440.404 1307.01 442.25 1303.53 445.796C1300.09 449.288 1298.18 453.938 1298.11 458.975H1297.25C1286.04 458.975 1276.92 468.329 1276.92 479.829V502.813C1276.92 514.313 1286.04 523.667 1297.25 523.667C1298.93 523.667 1300.3 522.267 1300.3 520.542C1300.3 518.817 1298.93 517.417 1297.25 517.417C1289.4 517.417 1283.01 510.867 1283.01 502.813V479.829C1283.01 471.775 1289.4 465.225 1297.25 465.225H1298.09V471.813C1298.09 473.538 1299.46 474.938 1301.14 474.938C1302.82 474.938 1304.18 473.538 1304.18 471.813V459.121C1304.2 455.758 1305.49 452.6 1307.82 450.229C1310.15 447.867 1313.27 446.771 1316.54 446.583C1323.24 446.583 1328.69 452.125 1328.8 458.975H1315.46C1313.78 458.975 1312.42 460.375 1312.42 462.1C1312.42 463.825 1313.78 465.225 1315.46 465.225H1328.82V471.813C1328.82 473.538 1330.18 474.938 1331.86 474.938C1333.54 474.938 1334.91 473.538 1334.91 471.813V465.225H1335.75C1343.6 465.225 1349.99 471.775 1349.99 479.829V502.813C1349.99 510.867 1343.6 517.417 1335.75 517.417H1313.85C1312.16 517.417 1310.8 518.817 1310.8 520.542C1310.8 522.267 1312.16 523.667 1313.85 523.667H1335.75C1346.96 523.667 1356.08 514.313 1356.08 502.813V479.829C1356.08 468.329 1346.96 458.975 1335.75 458.975Z" fill="white"/>
<path fill-rule="evenodd" clip-rule="evenodd" d="M1225.68 497.612L1222.53 473.146C1220.52 462.158 1213.24 458.496 1207.09 458.496C1206.16 450.48 1200.63 443.751 1192.95 441.302C1185.26 438.853 1176.86 441.138 1171.47 447.142C1170.69 447.986 1170.41 449.184 1170.75 450.286C1171.09 451.388 1171.99 452.226 1173.11 452.484C1174.23 452.742 1175.41 452.381 1176.19 451.537V451.171C1181.37 445.389 1190.25 444.897 1196.03 450.072C1198.47 452.276 1200.07 455.25 1200.57 458.496H1166.24C1160.34 458.496 1153.21 462.158 1150.79 473.329L1149.87 478.823C1149.7 480.508 1150.86 482.04 1152.53 482.329C1154.2 482.619 1155.8 481.567 1156.21 479.922L1157.09 474.538C1158.44 468.421 1161.84 464.759 1166.24 464.759H1207.09C1211.7 464.759 1215.1 468.421 1216.2 474.282L1219.31 498.491C1220.27 505.084 1219.31 509.919 1216.93 512.812C1214.55 515.705 1209.98 517.097 1203.35 517.097H1169.97C1165.09 517.426 1160.3 515.7 1156.76 512.336C1153.87 508.341 1152.87 503.286 1154.01 498.491C1154.26 496.742 1153.05 495.118 1151.3 494.865C1149.55 494.612 1147.93 495.826 1147.68 497.576C1145.82 504.202 1147.41 511.318 1151.89 516.531C1156.38 521.744 1163.18 524.363 1170.01 523.507H1203.35C1211.99 523.507 1218 521.382 1221.66 517.024C1225.32 512.666 1226.89 506.109 1225.68 497.612ZM1196.95 482.12C1197.4 482.294 1197.89 482.393 1198.38 482.413C1199.34 482.399 1200.26 482.004 1200.94 481.314C1201.33 480.994 1201.63 480.577 1201.82 480.105C1202.02 479.67 1202.12 479.194 1202.11 478.713C1202.15 478.471 1202.15 478.224 1202.11 477.981C1202.08 477.738 1202 477.503 1201.89 477.285C1201.83 477.054 1201.72 476.84 1201.56 476.662C1201.28 476.277 1200.95 475.932 1200.57 475.637C1200.15 475.383 1199.69 475.198 1199.22 475.087C1198.75 474.978 1198.26 474.978 1197.79 475.087C1197.55 475.127 1197.31 475.201 1197.09 475.307C1196.86 475.387 1196.64 475.498 1196.44 475.637L1195.89 476.113C1195.7 476.261 1195.55 476.449 1195.45 476.662L1195.08 477.285V477.981C1195.04 478.224 1195.04 478.471 1195.08 478.713C1195.06 479.191 1195.14 479.668 1195.34 480.105C1195.61 480.95 1196.18 481.666 1196.95 482.12ZM1178.76 478.75C1178.76 480.773 1177.12 482.413 1175.1 482.413C1174.16 482.38 1173.26 481.986 1172.61 481.314C1172.26 480.969 1171.99 480.558 1171.8 480.105C1171.63 479.662 1171.54 479.19 1171.54 478.713C1171.51 478.471 1171.51 478.224 1171.54 477.981C1171.58 477.738 1171.65 477.503 1171.76 477.285C1171.84 477.06 1171.95 476.849 1172.09 476.662C1172.2 476.449 1172.35 476.261 1172.53 476.113C1172.69 475.94 1172.88 475.792 1173.08 475.673C1173.27 475.528 1173.48 475.417 1173.7 475.344C1173.92 475.232 1174.16 475.158 1174.4 475.124C1174.87 475.015 1175.36 475.015 1175.83 475.124C1176.07 475.158 1176.3 475.232 1176.52 475.344C1176.75 475.417 1176.96 475.528 1177.15 475.673C1177.36 475.8 1177.56 475.961 1177.73 476.15C1177.92 476.298 1178.07 476.486 1178.17 476.699C1178.31 476.894 1178.43 477.102 1178.54 477.322L1178.76 478.017C1178.78 478.261 1178.78 478.506 1178.76 478.75Z" fill="white"/>
<path fill-rule="evenodd" clip-rule="evenodd" d="M928.146 519.5H950.908C960.425 519.5 968.167 511.829 968.167 502.395V491.248C968.167 489.539 966.767 488.152 965.042 488.152C961.621 488.152 958.838 485.394 958.838 482.004C958.838 478.615 961.621 475.857 965.042 475.857C965.871 475.857 966.667 475.53 967.25 474.948C967.838 474.366 968.167 473.578 968.167 472.76L968.163 461.605C968.163 452.171 960.417 444.5 950.9 444.5H902.1C892.583 444.5 884.842 452.171 884.842 461.605L884.833 473.119C884.833 473.937 885.163 474.725 885.75 475.308C886.333 475.89 887.129 476.216 887.958 476.216C891.496 476.216 894.163 478.701 894.163 482.004C894.163 485.394 891.379 488.152 887.958 488.152C886.233 488.152 884.833 489.539 884.833 491.248V502.395C884.833 511.829 892.575 519.5 902.096 519.5H909.554C911.279 519.5 912.679 518.113 912.679 516.404C912.679 514.694 911.279 513.307 909.554 513.307H902.096C896.025 513.307 891.083 508.411 891.083 502.395V493.952C896.446 492.577 900.413 487.743 900.413 482.004C900.413 476.327 896.508 471.691 891.088 470.386L891.092 461.605C891.092 455.589 896.029 450.693 902.1 450.693H950.9C956.971 450.693 961.913 455.589 961.913 461.605L961.917 470.056C956.554 471.431 952.588 476.265 952.588 482.004C952.588 487.743 956.558 492.577 961.917 493.952V502.395C961.917 508.411 956.979 513.307 950.908 513.307H928.146C926.421 513.307 925.021 514.694 925.021 516.404C925.021 518.113 926.421 519.5 928.146 519.5ZM942.289 477.531C942.867 478.139 943.175 478.941 943.167 479.79C943.154 480.638 942.826 481.432 942.232 482.023L937.369 486.908L938.517 493.799C938.779 495.369 938.164 496.931 936.91 497.864C935.651 498.802 934.027 498.916 932.654 498.177L926.643 494.934L920.632 498.181C920.054 498.502 919.402 498.667 918.75 498.667C917.897 498.667 917.077 498.388 916.38 497.864C915.129 496.931 914.51 495.369 914.772 493.799L915.925 486.908L911.058 482.023C909.946 480.913 909.557 479.279 910.033 477.759C910.516 476.243 911.767 475.158 913.3 474.934L920.017 473.925L923.026 467.651C923.707 466.224 925.093 465.338 926.638 465.333C928.192 465.333 929.578 466.216 930.267 467.643L933.547 474.086C934.339 475.648 933.756 477.573 932.244 478.384C931.518 478.781 930.681 478.852 929.898 478.608C929.107 478.354 928.463 477.801 928.078 477.05L926.7 474.347L924.834 478.24C924.383 479.178 923.518 479.832 922.51 479.98L918.475 480.584L921.394 483.522C922.124 484.248 922.456 485.3 922.284 486.334L921.595 490.476L925.212 488.521C926.114 488.035 927.188 488.035 928.082 488.521L931.698 490.476L931.009 486.334C930.837 485.3 931.169 484.248 931.895 483.518L937.922 477.472C938.509 476.889 939.3 476.509 940.104 476.568C940.932 476.577 941.707 476.915 942.289 477.531Z" fill="white"/>
<path fill-rule="evenodd" clip-rule="evenodd" d="M689.503 443.678C696.228 445.77 701.821 450.574 704.981 456.974C708.675 464.732 709.178 473.67 706.378 481.807C703.8 489.297 699.575 496.087 694.025 501.657C690.386 505.398 686.464 508.842 682.297 511.957L682.076 512.145C680.692 513.077 678.83 512.711 677.885 511.321C677.405 510.649 677.212 509.808 677.35 508.99C677.489 508.171 677.947 507.445 678.62 506.976C682.531 504.029 686.218 500.787 689.65 497.275C694.592 492.411 698.367 486.451 700.679 479.859C702.903 473.29 702.453 466.087 699.429 459.858C696.996 454.958 692.708 451.28 687.554 449.671C680.981 447.577 673.819 448.846 668.326 453.079C667.234 453.903 665.742 453.903 664.65 453.079C659.159 448.84 651.995 447.57 645.421 449.671C640.233 451.244 635.903 454.912 633.436 459.821C630.48 466.045 630.057 473.206 632.26 479.747C634.582 486.323 638.355 492.269 643.289 497.125C650.579 504.247 658.618 510.527 667.26 515.853C668.359 516.629 668.842 518.039 668.457 519.344C668.072 520.649 666.906 521.553 665.569 521.583C664.966 521.587 664.376 521.404 663.877 521.059C654.875 515.512 646.503 508.968 638.914 501.545C633.333 495.993 629.092 489.198 626.524 481.694C623.821 473.569 624.376 464.685 628.068 456.974C631.228 450.574 636.821 445.77 643.546 443.678C651.279 441.245 659.669 442.366 666.525 446.749C673.38 442.366 681.77 441.245 689.503 443.678ZM686.488 472.368C686.334 468.907 684.071 465.913 680.826 464.877C679.619 464.11 679.083 462.602 679.528 461.225C679.972 459.848 681.283 458.959 682.701 459.072C688.183 460.835 692.085 465.785 692.591 471.619C692.694 472.435 692.473 473.259 691.975 473.906C691.477 474.554 690.746 474.971 689.944 475.065C688.26 475.286 686.716 474.082 686.488 472.368Z" fill="white"/>
<path fill-rule="evenodd" clip-rule="evenodd" d="M536.528 570.333C543.269 570.333 549.984 571.996 555.95 575.142C576.263 585.86 584.075 611.106 573.365 631.427C566.059 645.283 551.675 653.667 536.48 653.667C533.512 653.667 530.514 653.347 527.531 652.687C525.85 652.312 524.79 650.646 525.16 648.965C525.531 647.284 527.193 646.23 528.885 646.593C544.402 650.044 560.423 642.596 567.846 628.516C576.953 611.242 570.312 589.773 553.04 580.662C547.969 577.986 542.26 576.573 536.524 576.573H536.484C516.959 576.573 501.071 592.463 501.071 611.994C501.064 617.684 502.451 623.348 505.082 628.38L505.882 629.944C506.861 631.779 507.078 634.058 506.443 636.121C505.566 638.434 504.836 640.684 504.234 642.923C506.575 642.218 509.434 641.179 511.499 640.427L512.347 640.122C513.951 639.524 515.752 640.372 516.339 641.994C516.926 643.613 516.086 645.404 514.468 645.988L513.631 646.292L513.489 646.344L513.489 646.344C510.413 647.459 506.271 648.96 503.46 649.589C503.218 649.64 502.957 649.673 502.719 649.666C500.803 649.666 499.637 648.891 498.994 648.238C498.007 647.236 497.538 645.83 497.593 644.061C497.6 643.859 497.626 643.65 497.673 643.448C498.415 640.291 499.38 637.142 500.547 634.091C500.631 633.794 500.58 633.255 500.341 632.803L499.537 631.243C496.459 625.348 494.826 618.679 494.833 611.991C494.833 589.02 513.518 570.333 536.48 570.333H536.528ZM513.181 611.996C513.181 609.262 515.401 607.041 518.135 607.041C520.869 607.041 523.088 609.262 523.088 611.996C523.088 614.727 520.869 616.948 518.135 616.948C515.401 616.948 513.181 614.727 513.181 611.996ZM541.436 611.995C541.436 609.264 539.216 607.039 536.482 607.039C533.748 607.039 531.528 609.264 531.528 611.995C531.528 614.726 533.748 616.95 536.482 616.95C539.216 616.95 541.436 614.726 541.436 611.995ZM554.828 607.039C557.562 607.039 559.782 609.264 559.782 611.995C559.782 614.726 557.562 616.95 554.828 616.95C552.095 616.95 549.875 614.726 549.875 611.995C549.875 609.264 552.095 607.039 554.828 607.039Z" fill="white"/>
<path fill-rule="evenodd" clip-rule="evenodd" d="M699.107 349.122C700.799 351.668 701.769 354.619 701.917 357.664L701.806 358.434C701.933 362.602 700.542 366.676 697.887 369.91C694.497 373.568 689.862 375.853 684.875 376.325C672.59 377.674 660.193 377.674 647.908 376.325C642.994 375.821 638.44 373.536 635.118 369.91C632.419 366.722 630.986 362.668 631.088 358.508V357.994C631.292 354.857 632.338 351.832 634.12 349.232L634.415 348.865C636.268 346.781 637.542 344.254 638.112 341.533V338.38V333.981C638.636 332.656 639.99 331.844 641.416 331.998C642.842 332.153 643.988 333.235 644.212 334.64V338.307V342.193C644.226 342.327 644.226 342.462 644.212 342.596C643.442 346.378 641.683 349.893 639.11 352.788C638.12 354.353 637.559 356.148 637.484 357.994V358.801C637.402 361.398 638.268 363.936 639.923 365.95C642.219 368.301 645.288 369.758 648.574 370.056C660.467 371.339 672.465 371.339 684.357 370.056C687.733 369.749 690.877 368.222 693.193 365.767C694.767 363.801 695.591 361.347 695.521 358.838V357.994C695.446 356.142 694.899 354.338 693.932 352.752C691.252 349.89 689.39 346.372 688.535 342.56C688.52 342.425 688.52 342.29 688.535 342.156V338.233V334.567C687.463 323.495 676.336 316.639 666.65 316.639C662.533 316.63 658.483 317.678 654.895 319.682C653.902 320.275 652.662 320.284 651.66 319.706C650.657 319.128 650.052 318.056 650.079 316.906C650.106 315.757 650.761 314.713 651.79 314.183C656.236 311.692 661.249 310.367 666.355 310.333C679.145 310.333 693.488 319.352 695.115 333.834V338.16V341.386C695.67 344.112 696.946 346.643 698.811 348.719C698.922 348.844 699.021 348.979 699.107 349.122ZM667.548 387.128C669.721 386.805 671.673 385.635 672.972 383.878H673.009C674.132 382.531 676.143 382.343 677.5 383.456C678.858 384.57 679.048 386.564 677.925 387.911C675.157 391.501 670.875 393.624 666.318 393.667C661.774 393.613 657.508 391.491 654.747 387.911C653.624 386.564 653.815 384.57 655.172 383.456C656.53 382.343 658.541 382.531 659.664 383.878C660.157 384.532 660.742 385.112 661.401 385.601C663.163 386.902 665.376 387.452 667.548 387.128Z" fill="white"/>
<path fill-rule="evenodd" clip-rule="evenodd" d="M310.467 333.63C313.434 336.017 315.176 339.606 315.214 343.413L315.177 376.638C315.177 385.662 307.862 392.978 298.837 392.978H291.59C287.222 392.978 283.676 389.448 283.656 385.08V370.08C283.656 368.919 282.715 367.978 281.554 367.978H270.685C270.121 367.978 269.581 368.205 269.186 368.607C268.791 369.009 268.574 369.552 268.583 370.116V375.841C268.583 377.642 267.123 379.102 265.322 379.102C263.521 379.102 262.062 377.642 262.062 375.841V370.116C262.062 367.819 262.974 365.617 264.598 363.993C266.222 362.369 268.424 361.457 270.721 361.457H281.59C286.359 361.477 290.214 365.348 290.214 370.116V385.08C290.214 385.84 290.83 386.457 291.59 386.457H299.018C304.421 386.457 308.801 382.077 308.801 376.674V343.486C308.774 341.647 307.923 339.918 306.482 338.775L281.446 318.812C278.289 316.213 273.733 316.213 270.576 318.812L262.533 324.826C261.042 325.897 258.965 325.556 257.895 324.065C256.824 322.575 257.165 320.498 258.656 319.428L266.59 313.667C272.092 309.244 279.929 309.244 285.431 313.667L310.467 333.63ZM253.257 386.42H269.924V386.493C271.725 386.493 273.185 387.953 273.185 389.754C273.185 391.555 271.725 393.015 269.924 393.015H253.257C244.241 392.995 236.937 385.69 236.917 376.674V343.486C236.974 339.651 238.774 336.05 241.808 333.703L244.815 331.457C246.231 330.789 247.922 331.222 248.843 332.488C249.764 333.754 249.655 335.496 248.583 336.638L245.649 338.812C244.258 339.967 243.449 341.678 243.438 343.486V376.638C243.478 382.038 247.857 386.401 253.257 386.42Z" fill="white"/>
<path fill-rule="evenodd" clip-rule="evenodd" d="M1356.05 324.68V336.605C1356.09 339.848 1354.86 342.974 1352.64 345.294C1350.42 347.615 1347.39 348.942 1344.22 348.981H1339.37C1337.73 348.802 1336.48 347.386 1336.48 345.7C1336.48 344.013 1337.73 342.598 1339.37 342.418H1344.07C1345.56 342.408 1346.98 341.793 1348.02 340.709C1349.06 339.625 1349.64 338.161 1349.62 336.643V324.68C1349.58 321.569 1347.12 319.057 1344.07 319.017H1332.35C1329.29 319.017 1326.8 321.552 1326.8 324.68V342.568C1326.74 344.382 1325.28 345.815 1323.5 345.793C1322.64 345.774 1321.83 345.406 1321.25 344.772C1320.66 344.138 1320.35 343.29 1320.38 342.418V324.68C1320.37 321.431 1321.62 318.312 1323.87 316.011C1326.12 313.71 1329.17 312.417 1332.35 312.417H1344.07C1350.63 312.576 1355.91 317.98 1356.05 324.68ZM1300.65 312.417H1288.93C1282.31 312.458 1276.96 317.924 1276.92 324.68V336.643C1276.96 343.392 1282.32 348.848 1288.93 348.869H1300.65C1303.83 348.879 1306.89 347.595 1309.14 345.301C1311.39 343.007 1312.66 339.892 1312.66 336.643V324.68C1312.64 317.916 1307.27 312.437 1300.65 312.417ZM1306.2 336.643C1306.22 338.161 1305.64 339.625 1304.6 340.709C1303.56 341.793 1302.14 342.408 1300.65 342.418H1288.93C1287.42 342.449 1285.96 341.851 1284.9 340.761C1283.83 339.671 1283.24 338.184 1283.27 336.643V324.68C1283.27 323.158 1283.87 321.7 1284.94 320.635C1286 319.57 1287.44 318.987 1288.93 319.017H1300.65C1303.7 319.037 1306.18 321.561 1306.2 324.68V336.643ZM1332.35 355.131H1344.07C1350.68 355.152 1356.04 360.608 1356.08 367.357V379.32C1356.04 386.076 1350.69 391.542 1344.07 391.583H1332.35C1325.74 391.542 1320.4 386.07 1320.38 379.32V367.357C1320.38 360.605 1325.74 355.131 1332.35 355.131ZM1348 383.336C1349.05 382.271 1349.63 380.825 1349.62 379.32V367.357C1349.62 365.855 1349.03 364.415 1347.99 363.353C1346.95 362.291 1345.54 361.694 1344.07 361.694H1332.35C1329.29 361.694 1326.8 364.23 1326.8 367.357V379.32C1326.79 380.825 1327.38 382.271 1328.42 383.336C1329.46 384.4 1330.88 384.993 1332.35 384.983H1344.07C1345.54 384.993 1346.96 384.4 1348 383.336ZM1276.92 379.283V367.357C1276.92 364.108 1278.18 360.993 1280.44 358.699C1282.69 356.405 1285.75 355.122 1288.93 355.132H1293.74C1294.97 354.997 1296.17 355.591 1296.83 356.662C1297.48 357.733 1297.48 359.093 1296.83 360.164C1296.17 361.234 1294.97 361.829 1293.74 361.694H1288.93C1285.86 361.694 1283.37 364.224 1283.35 367.357V379.17C1283.42 382.279 1285.88 384.774 1288.93 384.833H1300.72C1302.2 384.843 1303.62 384.251 1304.67 383.188C1305.72 382.125 1306.31 380.679 1306.31 379.17V361.432C1306.07 360.107 1306.64 358.767 1307.75 358.045C1308.87 357.324 1310.3 357.367 1311.37 358.153C1312.44 358.939 1312.94 360.311 1312.62 361.619V379.283C1312.62 386.056 1307.25 391.546 1300.61 391.546H1288.93C1282.35 391.407 1277.05 385.997 1276.92 379.283Z" fill="white"/>
<path d="M1097.15 387.861L1082.83 373.858L1082.49 373.347C1081.87 372.726 1081.01 372.376 1080.12 372.376C1079.23 372.376 1078.38 372.726 1077.75 373.347C1065.58 384.514 1046.83 385.121 1033.93 374.766C1021.02 364.41 1017.98 346.306 1026.82 332.459C1035.65 318.612 1053.62 313.32 1068.8 320.092C1083.99 326.864 1091.68 343.599 1086.78 359.198C1086.43 360.325 1086.71 361.551 1087.54 362.413C1088.36 363.276 1089.59 363.644 1090.76 363.38C1091.94 363.115 1092.88 362.258 1093.23 361.131C1099.09 342.619 1090.24 322.698 1072.4 314.254C1054.56 305.811 1033.09 311.378 1021.87 327.356C1010.66 343.333 1013.06 364.926 1027.54 378.165C1042.01 391.404 1064.21 392.316 1079.77 380.312L1092.45 392.711C1093.76 393.985 1095.88 393.985 1097.19 392.711C1098.49 391.418 1098.49 389.336 1097.19 388.043L1097.15 387.861Z" fill="white"/>
<path fill-rule="evenodd" clip-rule="evenodd" d="M1562.12 611.047C1563.37 609.803 1565.4 609.807 1566.65 611.055L1573.29 617.689V575.609C1573.29 573.847 1574.73 572.417 1576.5 572.417C1578.27 572.417 1579.71 573.847 1579.71 575.609V625.422C1579.71 626.715 1578.93 627.881 1577.72 628.374C1576.52 628.867 1575.14 628.59 1574.22 627.677L1562.11 615.562C1561.49 614.94 1561.17 614.123 1561.17 613.307C1561.17 612.49 1561.49 611.669 1562.12 611.047ZM1583.33 618.629C1582.7 618.008 1582.38 617.187 1582.38 616.361C1582.38 615.553 1582.69 614.74 1583.31 614.114L1586.34 611.063C1587.58 609.81 1589.61 609.798 1590.88 611.038C1592.14 612.273 1592.15 614.293 1590.9 615.553L1587.87 618.609C1586.63 619.861 1584.59 619.873 1583.33 618.629ZM1556.57 648.246C1556.57 646.405 1555.13 644.911 1553.36 644.911C1546.68 644.911 1541.25 639.263 1541.25 632.319V611.208C1541.25 604.295 1546.67 598.664 1553.32 598.664H1557.24C1559.01 598.664 1560.45 597.17 1560.45 595.329C1560.45 593.488 1559.01 591.994 1557.24 591.994H1553.32C1543.12 591.994 1534.83 600.613 1534.83 611.208V632.319C1534.83 642.94 1543.15 651.581 1553.36 651.581C1555.13 651.581 1556.57 650.087 1556.57 648.246ZM1618.17 611.253V632.365C1618.17 642.96 1609.88 651.583 1599.68 651.583H1567.95C1566.18 651.583 1564.75 650.085 1564.75 648.248C1564.75 646.403 1566.18 644.909 1567.95 644.909H1599.68C1606.33 644.909 1611.75 639.282 1611.75 632.365V611.253C1611.75 604.31 1606.32 598.662 1599.64 598.662H1595.76C1593.99 598.662 1592.55 597.172 1592.55 595.327C1592.55 593.486 1593.99 591.991 1595.76 591.991H1599.64C1609.85 591.991 1618.17 600.633 1618.17 611.253Z" fill="white"/>
<path d="M1730.61 582.058C1735.75 583.9 1740.87 585.74 1743.5 586.685C1746.13 587.629 1746.25 587.674 1746.31 587.698C1746.37 587.723 1746.38 587.725 1742.64 589.815C1738.9 591.904 1731.41 596.081 1724.91 599.707C1718.41 603.333 1712.9 606.411 1709.97 608.039C1707.05 609.667 1706.69 609.857 1706.34 609.989C1706 610.121 1705.64 610.212 1705.24 610.25C1704.83 610.288 1704.38 610.273 1703.87 610.159C1703.36 610.046 1702.79 609.834 1695.97 606.079C1689.15 602.324 1676.08 595.026 1669.56 591.365C1663.05 587.704 1663.09 587.681 1663.19 587.641C1663.3 587.6 1663.47 587.542 1670.01 585.024C1676.55 582.506 1689.49 577.515 1696.1 574.966C1702.71 572.416 1703 572.303 1703.24 572.224C1703.48 572.145 1703.65 572.101 1703.85 572.066C1704.04 572.031 1704.26 572.005 1704.54 572.001C1704.82 571.996 1705.16 572.014 1705.46 572.054C1705.75 572.094 1706.01 572.16 1706.28 572.247C1706.55 572.335 1706.85 572.446 1709.02 573.332C1711.19 574.219 1715.21 575.871 1719.25 577.529" stroke="white" stroke-width="6" stroke-linecap="round" stroke-linejoin="bevel"/>
<path d="M1679.62 611.796C1679.35 613.205 1679.07 614.614 1678.64 616.535C1678.2 618.457 1677.61 620.891 1677.24 622.375C1676.87 623.858 1676.72 624.39 1676.4 625.519C1676.07 626.648 1675.56 628.372 1675.22 629.519C1674.88 630.666 1674.7 631.235 1674.58 631.685C1674.47 632.134 1674.41 632.464 1674.37 632.803C1674.34 633.141 1674.32 633.487 1674.33 633.811C1674.34 634.135 1674.38 634.438 1674.43 634.711C1674.48 634.984 1674.54 635.226 1674.62 635.503C1674.71 635.779 1674.81 636.091 1674.96 636.407C1675.12 636.722 1675.31 637.042 1675.53 637.336C1675.74 637.631 1675.96 637.899 1676.4 638.314C1676.84 638.729 1677.5 639.292 1678.17 639.845C1678.84 640.399 1679.53 640.944 1680.43 641.619C1681.34 642.293 1682.46 643.098 1683.41 643.742C1684.35 644.387 1685.13 644.871 1685.93 645.356C1686.73 645.84 1687.55 646.325 1688.29 646.731C1689.02 647.138 1689.67 647.466 1690.3 647.786C1690.94 648.107 1691.57 648.418 1692.48 648.83C1693.38 649.241 1694.56 649.753 1695.36 650.099C1696.16 650.445 1696.57 650.625 1696.97 650.785C1697.37 650.944 1697.76 651.082 1698.12 651.199C1698.49 651.316 1698.83 651.411 1699.16 651.493C1699.48 651.575 1699.79 651.645 1700.15 651.71C1700.5 651.774 1700.9 651.835 1701.22 651.878C1701.54 651.921 1701.8 651.946 1702.04 651.965C1702.28 651.984 1702.52 651.996 1702.85 651.999C1703.18 652.002 1703.59 651.996 1704.06 651.966C1704.52 651.935 1705.04 651.88 1705.53 651.807C1706.02 651.733 1706.48 651.641 1707 651.51C1707.52 651.379 1708.09 651.209 1708.64 651.013C1709.19 650.817 1709.74 650.589 1710.4 650.321C1711.06 650.053 1711.85 649.741 1712.69 649.374C1713.53 649.006 1714.41 648.582 1715.28 648.146C1716.16 647.711 1717.01 647.263 1717.92 646.76C1718.82 646.257 1719.8 645.69 1720.76 645.09C1721.73 644.491 1722.69 643.854 1723.75 643.102C1724.81 642.35 1725.97 641.481 1726.95 640.723C1727.92 639.964 1728.71 639.316 1729.28 638.82C1729.85 638.324 1730.21 637.958 1730.52 637.566C1730.83 637.175 1731.08 636.746 1731.28 636.331C1731.47 635.915 1731.6 635.511 1731.69 635.168C1731.77 634.826 1731.82 634.544 1731.85 634.233C1731.89 633.921 1731.9 633.578 1731.89 633.211C1731.87 632.844 1731.82 632.452 1731.77 632.159C1731.72 631.866 1731.67 631.67 1731.58 631.401C1731.5 631.132 1731.39 630.789 1731.28 630.413C1731.16 630.036 1731.03 629.627 1730.92 629.25C1730.81 628.874 1730.7 628.519 1730.6 628.165C1730.49 627.81 1730.39 627.449 1730.23 626.923C1730.08 626.397 1729.88 625.706 1729.73 625.19C1729.59 624.675 1729.49 624.336 1729.37 623.903C1729.24 623.47 1729.09 622.942 1728.92 622.237C1728.74 621.532 1728.53 620.649 1728.33 619.797C1728.13 618.945 1727.93 618.123 1727.74 617.289C1727.55 616.454 1727.37 615.606 1727.23 614.905C1727.08 614.205 1726.96 613.651 1726.89 613.265C1726.81 612.88 1726.77 612.662 1726.73 612.445C1726.68 612.228 1726.64 612.012 1726.6 611.797" stroke="white" stroke-width="6" stroke-linecap="round"/>
<path d="M1746.79 587.614C1747.8 598.144 1748.82 608.678 1749.83 619.214" stroke="white" stroke-width="6" stroke-linecap="round"/>
<path d="M249.833 706.904C249.833 713.176 249.833 719.449 249.849 722.795C249.866 726.141 249.898 726.56 249.972 727.106C250.046 727.651 250.161 728.322 250.298 728.941C250.434 729.559 250.593 730.13 250.787 730.71C250.98 731.291 251.21 731.884 251.471 732.473C251.731 733.063 252.022 733.649 252.323 734.203C252.624 734.757 252.934 735.279 253.234 735.752C253.534 736.224 253.824 736.648 254.08 736.996C254.337 737.345 254.56 737.619 254.931 738.033C255.301 738.448 255.82 739.005 256.158 739.357C256.496 739.71 256.654 739.859 256.866 740.051C257.077 740.244 257.338 740.474 257.593 740.689C257.848 740.903 258.095 741.099 258.34 741.29C258.585 741.481 258.827 741.667 259.056 741.837C259.284 742.007 259.5 742.161 259.787 742.352C260.074 742.543 260.431 742.771 260.7 742.936C260.969 743.1 261.145 743.199 261.352 743.314C261.559 743.429 261.799 743.562 262.041 743.693C262.283 743.823 262.529 743.951 262.78 744.075C263.031 744.198 263.288 744.317 263.518 744.42C263.748 744.523 263.953 744.61 264.055 744.655C264.157 744.7 264.157 744.703 264.156 744.713C264.154 744.723 264.152 744.738 264.144 744.814C264.137 744.89 264.124 745.024 264.122 745.175C264.12 745.325 264.127 745.49 264.139 745.637C264.151 745.784 264.167 745.912 264.192 746.039C264.217 746.166 264.251 746.292 264.285 746.416C264.319 746.541 264.354 746.664 264.423 746.833C264.493 747.002 264.598 747.217 264.69 747.381C264.782 747.546 264.861 747.661 264.947 747.78C265.032 747.898 265.125 748.02 265.237 748.149C265.349 748.277 265.479 748.412 265.6 748.528C265.721 748.643 265.832 748.739 265.957 748.834C266.081 748.93 266.219 749.025 266.37 749.117C266.521 749.208 266.692 749.299 266.872 749.384C267.052 749.47 267.246 749.553 267.41 749.617C267.573 749.681 267.707 749.727 267.828 749.763C267.949 749.8 268.058 749.826 268.112 749.84C268.166 749.855 268.165 749.858 268.162 749.868C268.159 749.877 268.153 749.891 268.116 749.996C268.08 750.1 268.014 750.29 267.761 750.947C267.507 751.605 267.068 752.725 266.628 753.71C266.187 754.695 265.745 755.543 265.331 756.292C264.916 757.04 264.525 757.696 264.088 758.325C263.651 758.954 263.167 759.56 262.678 760.096C262.189 760.632 261.694 761.098 261.173 761.489C260.652 761.881 260.105 762.197 259.642 762.407C259.179 762.617 258.801 762.719 258.48 762.78C258.159 762.84 257.896 762.859 257.008 762.859C256.12 762.859 254.61 762.84 253.738 762.87C252.867 762.9 252.637 762.979 252.436 763.101C252.235 763.223 252.064 763.387 251.937 763.55C251.809 763.713 251.729 763.868 251.662 764.172C251.595 764.475 251.543 764.923 251.278 766.749C251.012 768.576 250.534 771.779 250.253 773.717C249.972 775.654 249.888 776.325 249.86 776.76C249.831 777.194 249.857 777.378 249.9 777.526C249.943 777.674 250.003 777.779 250.058 777.868C250.114 777.957 250.166 778.03 250.23 778.099C250.293 778.168 250.382 778.247 250.471 778.313C250.561 778.379 250.657 778.438 250.773 778.491C250.888 778.544 251.022 778.59 251.13 778.619C251.238 778.648 251.335 778.662 251.472 778.666C251.61 778.669 251.796 778.662 259.536 778.659C267.277 778.656 282.602 778.656 290.348 778.656C298.093 778.656 298.274 778.656 298.443 778.626C298.611 778.596 298.768 778.537 298.909 778.471C299.05 778.405 299.177 778.333 299.295 778.229C299.412 778.125 299.526 777.983 299.616 777.816C299.705 777.648 299.772 777.45 299.791 777.223C299.809 776.995 299.779 776.738 299.724 776.323C299.669 775.908 299.587 775.333 299.5 774.695C299.412 774.056 299.317 773.352 299.229 772.709C299.141 772.065 299.06 771.48 298.985 770.941C298.909 770.402 298.838 769.908 298.739 769.212C298.64 768.517 298.513 767.619 298.41 766.898C298.307 766.177 298.228 765.631 298.165 765.189C298.102 764.746 298.054 764.406 298.009 764.178C297.963 763.951 297.919 763.835 297.878 763.752C297.837 763.669 297.8 763.618 297.756 763.56C297.711 763.501 297.659 763.435 297.583 763.365C297.506 763.295 297.406 763.221 297.329 763.166C297.252 763.111 297.198 763.075 297.119 763.036C297.041 762.997 296.939 762.956 296.821 762.925C296.703 762.893 296.569 762.872 296.473 762.86C296.377 762.847 296.32 762.844 295.527 762.842C294.734 762.841 293.215 762.841 292.418 762.836C291.621 762.832 291.55 762.824 291.465 762.813C291.379 762.801 291.279 762.786 291.173 762.769C291.066 762.752 290.951 762.732 290.804 762.694C290.657 762.656 290.477 762.6 290.259 762.513C290.042 762.425 289.787 762.307 289.567 762.195C289.348 762.083 289.164 761.977 288.987 761.864C288.811 761.75 288.642 761.629 288.453 761.478C288.263 761.326 288.053 761.144 287.803 760.912C287.554 760.679 287.264 760.394 287.011 760.125C286.758 759.856 286.543 759.602 286.319 759.319C286.095 759.036 285.863 758.724 285.684 758.474C285.505 758.224 285.378 758.037 285.235 757.816C285.092 757.595 284.932 757.341 284.776 757.088C284.619 756.834 284.467 756.58 284.327 756.333C284.188 756.086 284.061 755.846 283.935 755.605C283.808 755.365 283.682 755.124 283.49 754.728C283.298 754.332 283.046 753.792 282.832 753.309C282.618 752.827 282.444 752.407 282.284 751.997C282.123 751.587 281.976 751.187 281.848 750.831C281.719 750.475 281.61 750.163 281.561 750.006C281.512 749.849 281.522 749.845 281.536 749.843C281.55 749.84 281.568 749.837 281.608 749.828C281.647 749.819 281.71 749.802 281.782 749.782C281.854 749.762 281.936 749.738 282.014 749.713C282.091 749.688 282.165 749.663 282.291 749.613C282.418 749.562 282.598 749.487 282.744 749.418C282.89 749.349 283.002 749.285 283.113 749.22C283.223 749.154 283.334 749.084 283.464 748.992C283.595 748.9 283.746 748.786 283.855 748.699C283.965 748.612 284.033 748.553 284.105 748.485C284.176 748.417 284.252 748.339 284.321 748.265C284.391 748.19 284.458 748.114 284.515 748.046C284.571 747.979 284.619 747.918 284.68 747.832C284.742 747.747 284.819 747.636 284.9 747.499C284.982 747.362 285.07 747.198 285.14 747.052C285.211 746.905 285.265 746.775 285.318 746.613C285.371 746.451 285.423 746.256 285.46 746.068C285.497 745.88 285.52 745.699 285.531 745.566C285.543 745.432 285.544 745.346 285.544 745.253C285.543 745.16 285.541 745.058 285.535 744.964C285.529 744.87 285.519 744.783 285.516 744.739C285.512 744.695 285.515 744.695 285.527 744.689C285.54 744.684 285.566 744.673 285.87 744.531C286.173 744.39 286.766 744.113 287.228 743.887C287.69 743.661 288.027 743.484 288.413 743.261C288.8 743.037 289.237 742.767 289.644 742.501C290.052 742.236 290.431 741.974 290.778 741.714C291.125 741.453 291.441 741.192 291.794 740.894C292.146 740.595 292.535 740.26 293.004 739.809C293.473 739.359 294.022 738.793 294.438 738.343C294.854 737.892 295.137 737.556 295.408 737.207C295.68 736.857 295.94 736.495 296.127 736.232C296.313 735.969 296.425 735.806 296.656 735.428C296.886 735.049 297.236 734.454 297.517 733.926C297.799 733.398 298.013 732.937 298.195 732.529C298.377 732.12 298.528 731.764 298.7 731.253C298.872 730.742 299.065 730.076 299.218 729.48C299.37 728.884 299.482 728.357 299.567 727.787C299.652 727.217 299.712 726.577 299.75 725.922C299.787 725.266 299.802 724.581 299.809 721.751C299.817 718.921 299.817 713.919 299.819 711.087C299.822 708.255 299.828 707.579 299.833 706.904" stroke="white" stroke-width="6" stroke-linecap="round" stroke-linejoin="round"/>
<path d="M249.833 706.904C249.856 706.107 249.875 705.313 250.023 704.658C250.171 704.003 250.445 703.482 250.917 703.043C251.389 702.604 252.125 702.205 253.367 702.068C254.609 701.931 256.415 702.035 261.771 702.088C267.127 702.14 276.078 702.14 285.008 702.14" stroke="white" stroke-width="6" stroke-linecap="round"/>
<path d="M291.798 725.048C291.526 726.496 291.253 727.947 290.687 729.417C290.121 730.887 289.265 732.369 287.937 733.684C286.609 735 284.819 736.137 283.02 737.28" stroke="white" stroke-width="6" stroke-linecap="round"/>
<path d="M408.597 755.846C410.206 756.262 411.815 756.678 413.368 756.957C414.922 757.236 416.42 757.377 417.838 757.404C419.256 757.431 420.593 757.342 422.023 757.159C423.453 756.975 425.004 756.69 426.266 756.391C427.527 756.092 428.557 755.768 429.533 755.4C430.509 755.033 431.431 754.621 432.246 754.223C433.061 753.826 433.768 753.444 434.605 752.918C435.443 752.392 436.41 751.724 437.342 750.999C438.274 750.275 439.17 749.495 439.853 748.847C440.535 748.199 441.002 747.684 441.508 747.091C442.013 746.498 442.555 745.83 442.847 745.464C443.138 745.098 443.176 745.039 443.165 745.375C443.154 745.71 443.095 746.44 442.978 747.252C442.861 748.064 442.683 748.979 442.424 750.02C442.165 751.06 441.817 752.267 441.437 753.38C441.057 754.493 440.643 755.513 440.252 756.376C439.861 757.24 439.491 757.947 439.078 758.717C438.665 759.487 438.208 760.319 437.687 761.151C437.165 761.983 436.578 762.816 435.861 763.742C435.143 764.667 434.295 765.687 433.328 766.696C432.36 767.705 431.273 768.703 430.053 769.709C428.834 770.716 427.48 771.731 426.197 772.555C424.913 773.379 423.699 774.011 422.523 774.593C421.347 775.174 420.209 775.703 419.125 776.13C418.042 776.557 417.011 776.88 415.782 777.211C414.552 777.542 413.136 777.877 411.792 778.122C410.447 778.366 409.202 778.513 408.072 778.59C406.942 778.666 405.927 778.672 404.905 778.664C403.883 778.657 402.853 778.637 401.884 778.575C400.916 778.513 400.009 778.41 398.909 778.234C397.81 778.057 396.519 777.807 395.243 777.491C393.967 777.175 392.706 776.792 391.546 776.395C390.385 775.998 389.324 775.586 388.187 775.056C387.049 774.526 385.834 773.879 384.474 773.048C383.113 772.217 381.607 771.201 380.262 770.164C378.916 769.127 377.733 768.068 376.595 766.869C375.457 765.67 374.366 764.331 373.297 762.823C372.229 761.315 371.184 759.638 370.353 758.063C369.523 756.489 368.908 755.018 368.324 753.208C367.74 751.399 367.187 749.251 366.864 747.029C366.541 744.807 366.449 742.513 366.526 740.364C366.602 738.216 366.849 736.212 367.218 734.463C367.586 732.714 368.078 731.213 368.77 729.477C369.462 727.741 370.353 725.77 371.353 724.004C372.352 722.239 373.459 720.68 374.689 719.208C375.919 717.737 377.271 716.354 378.409 715.28C379.547 714.206 380.469 713.441 381.576 712.647C382.683 711.852 383.974 711.028 385.404 710.234C386.834 709.439 388.402 708.674 390.247 707.953C392.091 707.232 394.213 706.556 396.166 706.111C398.119 705.666 399.903 705.453 400.778 705.373C401.654 705.292 401.62 705.344 401.469 705.453C401.319 705.563 401.053 705.728 400.697 705.973C400.341 706.218 399.895 706.54 399.433 706.909C398.971 707.279 398.493 707.695 397.811 708.358C397.129 709.021 396.243 709.931 395.566 710.662C394.889 711.393 394.422 711.944 393.9 712.688C393.378 713.432 392.802 714.368 392.248 715.388C391.693 716.407 391.161 717.51 390.748 718.524C390.335 719.539 390.041 720.464 389.776 721.417C389.511 722.369 389.269 723.367 389.084 724.501C388.899 725.635 388.769 726.894 388.726 728.09C388.682 729.287 388.726 730.41 388.829 731.45C388.932 732.491 389.095 733.448 389.242 734.228C389.389 735.008 389.519 735.612 389.731 736.361C389.943 737.11 390.237 738.004 390.503 738.707C390.769 739.409 391.009 739.918 391.346 740.61C391.683 741.302 392.117 742.176 392.598 742.986C393.079 743.796 393.639 744.59 394.183 745.359" stroke="white" stroke-width="6" stroke-linecap="round" stroke-linejoin="bevel"/>
<path d="M234.468 155.8H250.02V223H234.468V155.8ZM290.872 223.768C285.368 223.768 280.408 222.648 275.992 220.408C271.64 218.104 268.216 214.936 265.72 210.904C263.288 206.872 262.072 202.296 262.072 197.176C262.072 192.056 263.288 187.48 265.72 183.448C268.216 179.416 271.64 176.28 275.992 174.04C280.408 171.736 285.368 170.584 290.872 170.584C296.312 170.584 301.048 171.736 305.08 174.04C309.176 176.28 312.152 179.512 314.008 183.736L302.392 189.976C299.704 185.24 295.832 182.872 290.776 182.872C286.872 182.872 283.64 184.152 281.08 186.712C278.52 189.272 277.24 192.76 277.24 197.176C277.24 201.592 278.52 205.08 281.08 207.64C283.64 210.2 286.872 211.48 290.776 211.48C295.896 211.48 299.768 209.112 302.392 204.376L314.008 210.712C312.152 214.808 309.176 218.008 305.08 220.312C301.048 222.616 296.312 223.768 290.872 223.768ZM347.551 223.768C342.111 223.768 337.215 222.648 332.863 220.408C328.575 218.104 325.215 214.936 322.783 210.904C320.351 206.872 319.135 202.296 319.135 197.176C319.135 192.056 320.351 187.48 322.783 183.448C325.215 179.416 328.575 176.28 332.863 174.04C337.215 171.736 342.111 170.584 347.551 170.584C352.991 170.584 357.855 171.736 362.143 174.04C366.431 176.28 369.791 179.416 372.223 183.448C374.655 187.48 375.871 192.056 375.871 197.176C375.871 202.296 374.655 206.872 372.223 210.904C369.791 214.936 366.431 218.104 362.143 220.408C357.855 222.648 352.991 223.768 347.551 223.768ZM347.551 211.48C351.391 211.48 354.527 210.2 356.959 207.64C359.455 205.016 360.703 201.528 360.703 197.176C360.703 192.824 359.455 189.368 356.959 186.808C354.527 184.184 351.391 182.872 347.551 182.872C343.711 182.872 340.543 184.184 338.047 186.808C335.551 189.368 334.303 192.824 334.303 197.176C334.303 201.528 335.551 205.016 338.047 207.64C340.543 210.2 343.711 211.48 347.551 211.48ZM418.273 170.584C424.673 170.584 429.825 172.504 433.729 176.344C437.697 180.184 439.681 185.88 439.681 193.432V223H424.705V195.736C424.705 191.64 423.809 188.6 422.017 186.616C420.225 184.568 417.633 183.544 414.241 183.544C410.465 183.544 407.457 184.728 405.217 187.096C402.977 189.4 401.857 192.856 401.857 197.464V223H386.881V171.352H401.185V177.4C403.169 175.224 405.633 173.56 408.577 172.408C411.521 171.192 414.753 170.584 418.273 170.584ZM471.632 223.768C467.344 223.768 463.152 223.256 459.056 222.232C454.96 221.144 451.696 219.8 449.264 218.2L454.256 207.448C456.56 208.92 459.344 210.136 462.608 211.096C465.872 211.992 469.072 212.44 472.208 212.44C478.544 212.44 481.712 210.872 481.712 207.736C481.712 206.264 480.848 205.208 479.12 204.568C477.392 203.928 474.736 203.384 471.152 202.936C466.928 202.296 463.44 201.56 460.688 200.728C457.936 199.896 455.536 198.424 453.488 196.312C451.504 194.2 450.512 191.192 450.512 187.288C450.512 184.024 451.44 181.144 453.296 178.648C455.216 176.088 457.968 174.104 461.552 172.696C465.2 171.288 469.488 170.584 474.416 170.584C478.064 170.584 481.68 171 485.264 171.832C488.912 172.6 491.92 173.688 494.288 175.096L489.296 185.752C484.752 183.192 479.792 181.912 474.416 181.912C471.216 181.912 468.816 182.36 467.216 183.256C465.616 184.152 464.816 185.304 464.816 186.712C464.816 188.312 465.68 189.432 467.408 190.072C469.136 190.712 471.888 191.32 475.664 191.896C479.888 192.6 483.344 193.368 486.032 194.2C488.72 194.968 491.056 196.408 493.04 198.52C495.024 200.632 496.016 203.576 496.016 207.352C496.016 210.552 495.056 213.4 493.136 215.896C491.216 218.392 488.4 220.344 484.688 221.752C481.04 223.096 476.688 223.768 471.632 223.768Z" fill="white"/>
<path fill-rule="evenodd" clip-rule="evenodd" d="M908.439 701.332H944.56C958.681 701.332 968.169 711.241 968.169 725.982V760.016C968.169 774.757 958.677 784.666 944.556 784.666H922.139C920.414 784.666 919.014 783.266 919.014 781.541C919.014 779.816 920.414 778.416 922.139 778.416H944.556C955.102 778.416 961.919 771.195 961.919 760.016V725.982C961.919 714.803 955.102 707.582 944.56 707.582H908.439C897.898 707.582 891.085 714.803 891.085 725.982V760.016C891.085 771.195 897.898 778.416 908.439 778.416C910.164 778.416 911.564 779.816 911.564 781.541C911.564 783.266 910.164 784.666 908.439 784.666C894.319 784.666 884.835 774.757 884.835 760.016V725.982C884.835 711.241 894.319 701.332 908.439 701.332ZM903.448 738.552C904.156 736.977 905.998 736.273 907.581 736.985C909.156 737.689 909.856 739.539 909.148 741.114C908.881 741.71 908.748 742.343 908.748 742.998C908.748 745.531 910.806 747.589 913.335 747.589C915.869 747.589 917.927 745.531 917.927 742.998C917.927 740.468 915.869 738.41 913.335 738.41C911.61 738.41 910.21 737.01 910.21 735.285C910.21 733.56 911.61 732.16 913.335 732.16C918.223 732.16 922.31 735.427 923.66 739.873H947.377C949.102 739.873 950.502 741.273 950.502 742.998V750.714C950.502 752.439 949.102 753.839 947.377 753.839C945.652 753.839 944.252 752.439 944.252 750.714V746.123H938.714V750.714C938.714 752.439 937.314 753.839 935.589 753.839C933.864 753.839 932.464 752.439 932.464 750.714V746.123H923.66C922.31 750.573 918.223 753.839 913.335 753.839C907.36 753.839 902.498 748.977 902.498 742.998C902.498 741.452 902.814 739.96 903.448 738.552Z" fill="white"/>
<path fill-rule="evenodd" clip-rule="evenodd" d="M827.766 701.655C830.621 700.825 833.712 701.626 835.808 703.761C837.904 705.891 838.679 708.998 837.825 711.875L832.621 729.383C832.125 731.048 830.391 731.991 828.733 731.496C827.079 730.997 826.137 729.244 826.633 727.584L831.837 710.072C832.129 709.09 831.608 708.428 831.371 708.189C831.133 707.946 830.466 707.417 829.504 707.698L762.456 727.194C761.389 727.504 761.156 728.397 761.106 728.766C761.06 729.135 761.043 730.058 761.993 730.645L776.102 739.326C777.573 740.231 778.04 742.169 777.135 743.653C776.548 744.618 775.523 745.155 774.469 745.155C773.914 745.155 773.352 745.008 772.844 744.693L758.735 736.009C755.939 734.289 754.472 731.194 754.91 727.928C755.347 724.657 757.576 722.061 760.722 721.147L827.766 701.655ZM821.618 744.455C822.118 742.786 823.855 741.838 825.509 742.341C827.164 742.84 828.105 744.593 827.609 746.258L817.934 778.816C816.997 781.966 814.405 784.18 811.167 784.595C810.805 784.645 810.446 784.666 810.088 784.666C807.263 784.666 804.679 783.215 803.175 780.724L786.091 752.435C785.345 751.194 785.533 749.6 786.554 748.577L810.809 724.167C812.03 722.938 814.005 722.938 815.226 724.167C816.447 725.395 816.447 727.387 815.226 728.616L792.708 751.282L808.517 777.458C809.092 778.41 809.996 778.401 810.371 778.359C810.738 778.309 811.626 778.082 811.942 777.017L821.618 744.455Z" fill="white"/>
<path fill-rule="evenodd" clip-rule="evenodd" d="M536.5 701.333H536.639C556.165 701.41 571.993 717.342 571.916 736.843V737.23C571.653 751.167 563.274 762.732 556.293 769.978C554.307 772.049 552.192 774.037 550.011 775.893C548.705 777.008 546.744 776.854 545.628 775.55C544.512 774.242 544.67 772.283 545.976 771.169C547.995 769.448 549.96 767.599 551.808 765.673C558.02 759.227 565.469 749.036 565.696 737.117C565.758 720.743 552.715 707.607 536.613 707.541H536.5C520.453 707.541 507.365 720.55 507.303 736.587C507.578 744.509 510.256 752.04 515.052 758.358C520.65 765.812 529.142 773.705 537.213 778.959C538.655 779.895 539.061 781.817 538.121 783.256C537.528 784.17 536.529 784.667 535.512 784.667C534.93 784.667 534.345 784.506 533.818 784.162C525.176 778.539 516.08 770.084 510.084 762.099C504.519 754.766 501.405 746.015 501.083 736.803C501.16 717.108 517.035 701.333 536.5 701.333ZM529.23 737.225C529.23 741.219 532.486 744.475 536.489 744.475C540.492 744.475 543.748 741.219 543.748 737.225C543.748 733.228 540.492 729.972 536.489 729.972C534.773 729.972 533.379 728.583 533.379 726.87C533.379 725.152 534.773 723.764 536.489 723.764C543.92 723.764 549.968 729.8 549.968 737.225C549.968 744.646 543.92 750.683 536.489 750.683C529.058 750.683 523.01 744.646 523.01 737.225C523.01 735.508 524.404 734.119 526.12 734.119C527.836 734.119 529.23 735.508 529.23 737.225Z" fill="white"/>
<path fill-rule="evenodd" clip-rule="evenodd" d="M650.408 701.333H682.556C695.945 701.333 703.964 709.464 704 723.04V762.96C704 776.536 696.017 784.667 682.592 784.667H670.691C669.165 784.496 668.009 783.188 668.009 781.631C668.009 780.074 669.165 778.767 670.691 778.596H682.556C692.788 778.596 697.94 773.335 697.94 762.96V723.04C697.94 712.665 692.788 707.404 682.556 707.404H650.408C640.176 707.404 634.987 712.665 634.987 723.04V762.96C634.987 773.335 640.176 778.596 650.408 778.596C651.934 778.767 653.089 780.074 653.089 781.631C653.089 783.188 651.934 784.496 650.408 784.667C637.019 784.667 629 776.536 629 762.96V723.04C629 709.427 637.019 701.333 650.408 701.333ZM651.46 728.412H662.89C664.416 728.242 665.571 726.934 665.571 725.377C665.571 723.82 664.416 722.512 662.89 722.342H651.46C649.934 722.512 648.778 723.82 648.778 725.377C648.778 726.934 649.934 728.242 651.46 728.412ZM681.467 746.035H651.46H651.423C649.897 745.865 648.742 744.557 648.742 743C648.742 741.443 649.897 740.135 651.423 739.965H681.467C682.615 739.836 683.735 740.385 684.348 741.377C684.962 742.37 684.962 743.63 684.348 744.623C683.735 745.615 682.615 746.164 681.467 746.035ZM681.468 763.659H651.46H651.424C649.781 763.659 648.449 762.308 648.449 760.642C648.449 758.976 649.781 757.625 651.424 757.625H681.468C683.111 757.625 684.443 758.976 684.443 760.642C684.443 762.308 683.111 763.659 681.468 763.659Z" fill="white"/>
<path fill-rule="evenodd" clip-rule="evenodd" d="M1038.94 702.417H1074.06C1087.35 702.417 1098.17 713.478 1098.17 727.079V756.921C1098.17 770.522 1087.35 781.583 1074.06 781.583C1072.53 781.583 1071.28 780.31 1071.28 778.741C1071.28 777.172 1072.53 775.899 1074.06 775.899C1084.29 775.899 1092.61 767.388 1092.61 756.921V733.104H1078.93C1074.44 733.108 1070.77 736.852 1070.77 741.452C1070.77 746.053 1074.44 749.797 1078.93 749.801H1084.61C1086.15 749.801 1087.39 751.074 1087.39 752.643C1087.39 754.212 1086.15 755.485 1084.61 755.485H1078.93C1071.37 755.481 1065.22 749.187 1065.21 741.452C1065.22 733.718 1071.37 727.424 1078.93 727.42H1092.61V727.079C1092.61 716.612 1084.29 708.101 1074.06 708.101H1038.94C1030.69 708.101 1023.77 713.664 1021.36 721.285H1057.98C1059.51 721.285 1060.76 722.558 1060.76 724.127C1060.76 725.699 1059.51 726.969 1057.98 726.969H1020.4C1020.4 726.988 1020.4 727.006 1020.39 727.024C1020.39 727.042 1020.39 727.06 1020.39 727.079V756.921C1020.39 767.388 1028.71 775.899 1038.94 775.899H1056.61C1058.14 775.899 1059.39 777.172 1059.39 778.741C1059.39 780.31 1058.14 781.583 1056.61 781.583H1038.94C1025.64 781.583 1014.83 770.522 1014.83 756.921V727.079C1014.83 713.478 1025.64 702.417 1038.94 702.417ZM1076.75 741.196C1076.75 739.627 1078 738.354 1079.53 738.354H1080.79C1082.33 738.354 1083.57 739.627 1083.57 741.196C1083.57 742.765 1082.33 744.038 1080.79 744.038H1079.53C1078 744.038 1076.75 742.765 1076.75 741.196Z" fill="white"/>
<path fill-rule="evenodd" clip-rule="evenodd" d="M1228.12 733.406C1225.26 715.934 1210.32 702.936 1192.51 702.418C1190.73 702.377 1189.01 703.074 1187.76 704.342C1186.56 705.581 1185.93 707.267 1186.04 708.986L1187.87 736.236C1188.15 739.676 1191.04 742.325 1194.52 742.332H1194.96L1222.35 740.518C1223.99 740.425 1225.53 739.682 1226.62 738.456C1227.71 737.229 1228.27 735.62 1228.16 733.987V733.406H1228.12ZM1194.52 735.801L1192.69 709.023C1207.02 709.6 1219.02 719.997 1221.55 734.023L1194.52 735.801ZM1206.5 754.451C1207.01 752.713 1208.83 751.698 1210.59 752.165C1211.45 752.37 1212.2 752.914 1212.65 753.673C1213.1 754.432 1213.23 755.341 1213 756.193C1210.52 765.188 1204.47 772.796 1196.23 777.275C1186.13 782.838 1173.9 783.024 1163.63 777.77C1153.36 772.516 1146.41 762.515 1145.1 751.113C1144.89 749.782 1144.8 748.433 1144.84 747.085C1144.83 730.747 1156.36 716.64 1172.46 713.304C1174.27 712.943 1176.04 714.113 1176.4 715.916C1176.76 717.72 1175.59 719.474 1173.77 719.835C1160.78 722.581 1151.5 733.996 1151.53 747.194C1151.5 748.226 1151.56 749.258 1151.71 750.279C1153.31 763.456 1164.06 773.675 1177.38 774.69C1190.7 775.704 1202.89 767.232 1206.5 754.451Z" fill="white"/>
</svg>
