<svg width="101" height="100" viewBox="0 0 101 100" fill="none" xmlns="http://www.w3.org/2000/svg">
<path fill-rule="evenodd" clip-rule="evenodd" d="M8.83293 49.9992C8.83293 27.02 27.5246 8.33252 50.4996 8.33252C73.4746 8.33252 92.1663 27.02 92.1663 49.9992C92.1663 72.9742 73.4746 91.6659 50.4996 91.6659C37.4704 91.6659 25.4288 85.7367 17.4704 75.4075C16.4496 74.0784 16.6954 72.1742 18.0246 71.1575C19.3454 70.1325 21.2454 70.3867 22.2704 71.7075C29.0746 80.5409 39.3621 85.6075 50.4996 85.6075C70.1329 85.6075 86.1079 69.6367 86.1079 49.9992C86.1079 30.3659 70.1329 14.3909 50.4996 14.3909C30.8663 14.3909 14.8913 30.3659 14.8913 49.9992C14.8913 51.8242 15.0288 53.6367 15.2996 55.4117C15.5496 57.0617 14.4163 58.6075 12.7621 58.8617C11.0996 59.1367 9.5621 57.9825 9.3121 56.3284C8.99543 54.2534 8.83293 52.1242 8.83293 49.9992ZM50.4996 31.0579C48.7746 31.0579 47.3746 32.4579 47.3746 34.1829V52.5996C47.3746 54.3246 48.7746 55.7246 50.4996 55.7246C52.2246 55.7246 53.6246 54.3246 53.6246 52.5996V34.1829C53.6246 32.4579 52.2246 31.0579 50.4996 31.0579ZM50.542 62.6904H50.5004C48.7754 62.6904 47.3962 64.0904 47.3962 65.8154C47.3962 67.5404 48.817 68.9404 50.542 68.9404C52.267 68.9404 53.667 67.5404 53.667 65.8154C53.667 64.0904 52.267 62.6904 50.542 62.6904Z" fill="white"/>
</svg>
