<svg width="169" height="144" viewBox="0 0 169 144" fill="none" xmlns="http://www.w3.org/2000/svg">
<g clip-path="url(#clip0)">
<path d="M160.616 134.704C160.979 134.708 161.338 134.637 161.672 134.496C162.006 134.355 162.307 134.147 162.557 133.885C162.807 133.622 163.001 133.312 163.126 132.971C163.251 132.631 163.304 132.269 163.283 131.907C163.283 129.923 162.087 128.975 159.631 128.975H155.663V139.362H157.156V134.834H158.989L159.031 134.89L161.877 139.362H163.473L160.411 134.733L160.616 134.704ZM158.89 133.664H157.16V130.153H159.353C160.486 130.153 161.778 130.338 161.778 131.821C161.778 133.527 160.471 133.664 158.881 133.664" fill="#0A66C2"/>
<path d="M121.688 121.688H100.526V88.5481C100.526 80.6456 100.385 70.4726 89.5201 70.4726C78.4985 70.4726 76.8121 79.0827 76.8121 87.9727V121.686H55.6505V53.5367H75.9656V62.85H76.25C78.2831 59.3739 81.2209 56.5142 84.7506 54.5757C88.2803 52.6371 92.2698 51.6922 96.294 51.8416C117.742 51.8416 121.697 65.9493 121.697 84.3025L121.688 121.688ZM31.7733 44.2212C29.3445 44.2217 26.97 43.5019 24.9503 42.1528C22.9305 40.8038 21.3563 38.8862 20.4264 36.6424C19.4966 34.3986 19.2529 31.9295 19.7263 29.5473C20.1997 27.1651 21.3689 24.9767 23.0861 23.259C24.8032 21.5412 26.9911 20.3713 29.3732 19.897C31.7553 19.4227 34.2244 19.6655 36.4685 20.5945C38.7126 21.5236 40.6308 23.0972 41.9805 25.1165C43.3303 27.1357 44.051 29.5099 44.0514 31.9387C44.0517 33.5514 43.7343 35.1483 43.1174 36.6383C42.5005 38.1284 41.5963 39.4823 40.4562 40.6228C39.3161 41.7634 37.9624 42.6682 36.4725 43.2856C34.9827 43.903 33.386 44.2209 31.7733 44.2212ZM42.354 121.688H21.1705V53.5367H42.354V121.688ZM132.238 0.00899785H10.5368C7.77457 -0.0221743 5.11279 1.04458 3.13665 2.97485C1.1605 4.90512 0.0316368 7.54097 -0.0020752 10.3032V132.509C0.030483 135.273 1.15868 137.91 3.13476 139.843C5.11084 141.775 7.7732 142.844 10.5368 142.814H132.238C135.007 142.849 137.677 141.783 139.661 139.851C141.644 137.919 142.78 135.278 142.819 132.509V10.2944C142.779 7.52668 141.642 4.88782 139.659 2.9576C137.675 1.02738 135.006 -0.0363259 132.238 0.000176968" fill="#0A66C2"/>
<path d="M159.071 124.348C156.497 124.373 154.036 125.416 152.229 127.25C150.421 129.084 149.414 131.559 149.426 134.134C149.439 136.708 150.47 139.173 152.295 140.989C154.12 142.806 156.59 143.825 159.165 143.825C161.74 143.825 164.209 142.806 166.034 140.989C167.859 139.173 168.891 136.708 168.903 134.134C168.916 131.559 167.908 129.084 166.101 127.25C164.293 125.416 161.833 124.373 159.258 124.348H159.071ZM159.071 142.71C157.382 142.739 155.723 142.265 154.304 141.35C152.884 140.436 151.767 139.12 151.095 137.571C150.423 136.021 150.225 134.307 150.527 132.646C150.829 130.984 151.617 129.449 152.791 128.235C153.965 127.021 155.473 126.182 157.124 125.825C158.775 125.468 160.494 125.609 162.065 126.229C163.636 126.849 164.988 127.922 165.949 129.31C166.911 130.699 167.439 132.341 167.467 134.03C167.467 134.078 167.467 134.125 167.467 134.173C167.515 136.388 166.68 138.532 165.147 140.132C163.615 141.732 161.509 142.658 159.294 142.706H159.073" fill="#0A66C2"/>
</g>
<defs>
<clipPath id="clip0">
<rect width="168.905" height="144" fill="white"/>
</clipPath>
</defs>
</svg>
