<svg width="101" height="100" viewBox="0 0 101 100" fill="none" xmlns="http://www.w3.org/2000/svg">
<path fill-rule="evenodd" clip-rule="evenodd" d="M50.4997 8.33331H50.6387C70.1653 8.41005 85.9929 24.3415 85.9161 43.843V44.2303C85.6527 58.1667 77.2742 69.7316 70.2934 76.9775C68.3067 79.0494 66.1919 81.0371 64.0113 82.8934C62.7052 84.0078 60.7441 83.8544 59.6282 82.5499C58.5123 81.2418 58.6696 79.2832 59.9758 78.1687C61.9954 76.4477 63.9601 74.5988 65.8078 72.6731C72.0203 66.2274 79.4694 56.0364 79.6963 44.117C79.7585 27.7434 66.7151 14.6072 50.6131 14.5415H50.4997C34.4526 14.5415 21.3653 27.5498 21.3031 43.5872C21.5775 51.5091 24.2557 59.04 29.0523 65.3578C34.6501 72.812 43.142 80.7046 51.2132 85.9591C52.6547 86.8945 53.0608 88.8165 52.1205 90.2562C51.5278 91.1697 50.529 91.6666 49.5118 91.6666C48.9301 91.6666 48.3447 91.5059 47.8179 91.1624C39.176 85.5389 30.0804 77.0835 24.0838 69.0995C18.5188 61.7659 15.4053 53.0145 15.0833 43.8028C15.1601 24.1077 31.0353 8.33331 50.4997 8.33331ZM43.23 44.2252C43.23 48.219 46.4862 51.4748 50.4889 51.4748C54.4915 51.4748 57.7478 48.219 57.7478 44.2252C57.7478 40.2277 54.4915 36.972 50.4889 36.972C48.7729 36.972 47.379 35.5835 47.379 33.8697C47.379 32.1524 48.7729 30.7638 50.4889 30.7638C57.9197 30.7638 63.9676 36.8003 63.9676 44.2252C63.9676 51.6465 57.9197 57.6829 50.4889 57.6829C43.058 57.6829 37.0102 51.6465 37.0102 44.2252C37.0102 42.5078 38.4041 41.1193 40.1201 41.1193C41.836 41.1193 43.23 42.5078 43.23 44.2252Z" fill="white"/>
</svg>
