<svg width="101" height="100" viewBox="0 0 101 100" fill="none" xmlns="http://www.w3.org/2000/svg">
<path fill-rule="evenodd" clip-rule="evenodd" d="M34.0766 30.641C34.0766 21.6412 41.4435 14.3206 50.5001 14.3206C59.5567 14.3206 66.9236 21.6412 66.9236 30.641C66.9236 39.6366 59.5567 46.9573 50.5001 46.9573C41.4435 46.9573 34.0766 39.6366 34.0766 30.641ZM28.0513 30.6412C28.0513 42.9367 38.1226 52.9448 50.4999 52.9448C62.8773 52.9448 72.9444 42.9367 72.9444 30.6412C72.9444 18.3415 62.8773 8.33337 50.4999 8.33337C38.1226 8.33337 28.0513 18.3415 28.0513 30.6412ZM46.2401 91.6042C47.6363 91.6458 49.0577 91.6667 50.5 91.6667C64.8103 91.6667 83.8333 90.0792 83.8333 76.3754C83.8333 60.9966 58.7432 60.9966 50.5 60.9966C36.1897 60.9966 17.1667 62.584 17.1667 76.292C17.1667 80.3961 19.087 85.9335 28.2359 89.0126C29.8166 89.5542 31.5189 88.7001 32.0556 87.1376C32.5881 85.5751 31.7453 83.8793 30.1688 83.3502C23.9088 81.2419 23.1877 78.3128 23.1877 76.292C23.1877 70.113 32.3784 66.9798 50.5 66.9798C68.6216 66.9798 77.8124 70.1422 77.8124 76.3754C77.8124 82.5502 68.6216 85.6793 50.5 85.6793C49.1164 85.6793 47.7537 85.6626 46.412 85.6251C44.8019 85.6376 43.3679 86.8793 43.3218 88.5292C43.2715 90.1834 44.5797 91.5625 46.2401 91.6042Z" fill="white"/>
</svg>
