<svg width="101" height="100" viewBox="0 0 101 100" fill="none" xmlns="http://www.w3.org/2000/svg">
<path fill-rule="evenodd" clip-rule="evenodd" d="M76.2625 19.0875H68.0833C67.3083 13.0291 62.1208 8.33331 55.8583 8.33331H45.1C38.8375 8.33331 33.65 13.025 32.875 19.0833L24.7375 19.0875C15.9667 19.0875 8.83333 26.2041 8.83333 34.95V49.3958C8.83333 50.4458 9.35833 51.425 10.2375 52.0041C18.8167 57.6666 28.9708 61.4375 39.6 62.9166C41.1792 63.15 42.6292 62.1625 43.0458 60.6458C43.975 57.2666 46.9542 54.9958 50.4583 54.9958C53.925 54.9958 56.9333 57.3166 57.775 60.6291C58.1292 62.0291 59.3917 62.9875 60.8 62.9875C60.9458 62.9875 61.0875 62.9791 61.2333 62.9583C71.9333 61.4791 82.1333 57.6875 90.725 52.0041C91.6 51.4208 92.125 50.4458 92.125 49.3958V34.95C92.125 26.2041 85.0083 19.0875 76.2625 19.0875ZM85.875 47.6875C79.0292 51.9416 71.1375 54.9208 62.8292 56.3833C60.5458 51.7708 55.7958 48.7458 50.4583 48.7458C45.1625 48.7458 40.3917 51.7625 38.0458 56.3458C29.7875 54.8916 21.9208 51.9291 15.0833 47.6875V34.95C15.0833 29.65 19.4125 25.3375 24.7417 25.3375L35.9 25.3291C36.7333 25.3291 37.525 25 38.1125 24.4125C38.6958 23.8208 39.025 23.0291 39.025 22.2L39.0208 20.6583C39.0208 17.3083 41.75 14.5833 45.1 14.5833H55.8583C58.6625 14.5833 61.0333 16.4958 61.7292 19.0875H50.4792C48.7542 19.0875 47.3542 20.4875 47.3542 22.2125C47.3542 23.9375 48.7542 25.3375 50.4792 25.3375H76.2625C81.5625 25.3375 85.875 29.65 85.875 34.95V47.6875ZM53.6034 64.0975V69.4891C53.6034 71.2141 52.2034 72.6142 50.4784 72.6142C48.7534 72.6142 47.3534 71.2141 47.3534 69.4891V64.0975C47.3534 62.3725 48.7534 60.9725 50.4784 60.9725C52.2034 60.9725 53.6034 62.3725 53.6034 64.0975ZM88.8958 61.3554C87.2583 61.3554 85.9541 62.6304 85.8291 64.2304C85.8291 64.2304 85.1874 71.5179 85.0541 73.8179C84.8999 76.3637 83.8666 79.1346 82.4208 80.8721C80.3833 83.3304 78.1249 84.2929 74.3666 84.3012C71.8999 84.3054 58.5958 84.3096 48.5458 84.3096C46.8166 84.3096 45.4166 85.7096 45.4166 87.4346C45.4166 89.1596 46.8166 90.5596 48.5416 90.5596C58.2416 90.5596 72.0499 90.5554 74.3791 90.5512C79.9374 90.5387 84.0249 88.7304 87.2333 84.8637C89.5374 82.0887 91.0541 78.1012 91.2916 74.1929C91.3862 72.5854 91.7091 68.4152 91.889 66.0928C91.9627 65.1404 92.0124 64.4987 92.0124 64.4721C92.0124 62.7512 90.6166 61.3554 88.8958 61.3554ZM26.5923 84.3004C27.409 84.3046 29.1007 84.3046 31.3215 84.3046C33.0465 84.3046 34.459 85.7046 34.459 87.4296C34.459 89.1546 33.0423 90.5546 31.3132 90.5546C29.0632 90.5546 27.4215 90.5546 26.584 90.5504C21.0215 90.5379 16.934 88.7296 13.7257 84.8587C11.4257 82.0879 9.90484 78.1004 9.67151 74.1921C9.57541 72.608 9.25953 68.5349 9.078 66.1943C8.99978 65.1857 8.94651 64.4988 8.94651 64.4712C8.94651 62.7504 10.3423 61.3546 12.0632 61.3546C13.7007 61.3546 15.0007 62.6296 15.1298 64.2337C15.1298 64.2337 15.7715 71.5212 15.909 73.8171C16.0632 76.3629 17.0923 79.1337 18.5382 80.8671C20.5798 83.3337 22.8382 84.2921 26.5923 84.3004Z" fill="white"/>
</svg>
